%TF.GenerationSoftware,KiCad,Pcbnew,10.0.4*%
%TF.CreationDate,2026-08-28T23:42:00-04:00*%
%TF.ProjectId,smartbin-hat,736d6172-7462-4696-9e2d-6861742e6b69,v1*%
%TF.SameCoordinates,Original*%
%TF.FileFunction,Copper,L2,Bot*%
%TF.FilePolarity,Positive*%
%FSLAX46Y46*%
G04 Gerber Fmt 4.6, Leading zero omitted, Abs format (unit mm)*
G04 Created by KiCad (PCBNEW 10.0.4) date 2026-08-28 23:42:00*
%MOMM*%
%LPD*%
G01*
G04 APERTURE LIST*
G04 Aperture macros list*
%AMRoundRect*
0 Rectangle with rounded corners*
0 $1 Rounding radius*
0 $2 $3 $4 $5 $6 $7 $8 $9 X,Y pos of 4 corners*
0 Add a 4 corners polygon primitive as box body*
4,1,4,$2,$3,$4,$5,$6,$7,$8,$9,$2,$3,0*
0 Add four circle primitives for the rounded corners*
1,1,$1+$1,$2,$3*
1,1,$1+$1,$4,$5*
1,1,$1+$1,$6,$7*
1,1,$1+$1,$8,$9*
0 Add four rect primitives between the rounded corners*
20,1,$1+$1,$2,$3,$4,$5,0*
20,1,$1+$1,$4,$5,$6,$7,0*
20,1,$1+$1,$6,$7,$8,$9,0*
20,1,$1+$1,$8,$9,$2,$3,0*%
G04 Aperture macros list end*
%TA.AperFunction,ComponentPad*%
%ADD10R,1.700000X1.700000*%
%TD*%
%TA.AperFunction,ComponentPad*%
%ADD11C,1.700000*%
%TD*%
%TA.AperFunction,ComponentPad*%
%ADD12RoundRect,0.250000X-0.550000X-0.550000X0.550000X-0.550000X0.550000X0.550000X-0.550000X0.550000X0*%
%TD*%
%TA.AperFunction,ComponentPad*%
%ADD13C,1.600000*%
%TD*%
%TA.AperFunction,ViaPad*%
%ADD14C,0.600000*%
%TD*%
%TA.AperFunction,Conductor*%
%ADD15C,0.150000*%
%TD*%
G04 APERTURE END LIST*
D10*
%TO.P,J3,1*%
%TO.N,AVDD*%
X94970000Y-89030000D03*
D11*
%TO.P,J3,2*%
%TO.N,GND*%
X97510000Y-89030000D03*
%TO.P,J3,3*%
%TO.N,CELL_A+*%
X100050000Y-89030000D03*
%TO.P,J3,4*%
%TO.N,CELL_A-*%
X102590000Y-89030000D03*
%TD*%
D10*
%TO.P,J8,1*%
%TO.N,+3V3*%
X82970000Y-77530000D03*
D11*
%TO.P,J8,2*%
%TO.N,BEAM_RX*%
X85510000Y-77530000D03*
%TO.P,J8,3*%
%TO.N,GND*%
X88050000Y-77530000D03*
%TD*%
D10*
%TO.P,J9,1*%
%TO.N,BEAM_TX_A*%
X79970000Y-70530000D03*
D11*
%TO.P,J9,2*%
%TO.N,GND*%
X82510000Y-70530000D03*
%TD*%
D10*
%TO.P,J6,1*%
%TO.N,VBATT*%
X60970000Y-75030000D03*
D11*
%TO.P,J6,2*%
%TO.N,GND*%
X63510000Y-75030000D03*
%TD*%
D10*
%TO.P,J1,1*%
%TO.N,+3V3*%
X56960000Y-51000000D03*
D11*
%TO.P,J1,2*%
%TO.N,+5V*%
X56960000Y-53540000D03*
%TO.P,J1,3*%
%TO.N,N/C*%
X59500000Y-51000000D03*
%TO.P,J1,4*%
%TO.N,+5V*%
X59500000Y-53540000D03*
%TO.P,J1,5*%
%TO.N,N/C*%
X62040000Y-51000000D03*
%TO.P,J1,6*%
%TO.N,GND*%
X62040000Y-53540000D03*
%TO.P,J1,7*%
%TO.N,N/C*%
X64580000Y-51000000D03*
%TO.P,J1,8*%
X64580000Y-53540000D03*
%TO.P,J1,9*%
%TO.N,GND*%
X67120000Y-51000000D03*
%TO.P,J1,10*%
%TO.N,N/C*%
X67120000Y-53540000D03*
%TO.P,J1,11*%
%TO.N,BEAM_RX*%
X69660000Y-51000000D03*
%TO.P,J1,12*%
%TO.N,N/C*%
X69660000Y-53540000D03*
%TO.P,J1,13*%
X72200000Y-51000000D03*
%TO.P,J1,14*%
%TO.N,GND*%
X72200000Y-53540000D03*
%TO.P,J1,15*%
%TO.N,N/C*%
X74740000Y-51000000D03*
%TO.P,J1,16*%
X74740000Y-53540000D03*
%TO.P,J1,17*%
X77280000Y-51000000D03*
%TO.P,J1,18*%
X77280000Y-53540000D03*
%TO.P,J1,19*%
%TO.N,SPI_MOSI*%
X79820000Y-51000000D03*
%TO.P,J1,20*%
%TO.N,GND*%
X79820000Y-53540000D03*
%TO.P,J1,21*%
%TO.N,SPI_MISO*%
X82360000Y-51000000D03*
%TO.P,J1,22*%
%TO.N,N/C*%
X82360000Y-53540000D03*
%TO.P,J1,23*%
%TO.N,SPI_SCLK*%
X84900000Y-51000000D03*
%TO.P,J1,24*%
%TO.N,SPI_CE0*%
X84900000Y-53540000D03*
%TO.P,J1,25*%
%TO.N,GND*%
X87440000Y-51000000D03*
%TO.P,J1,26*%
%TO.N,N/C*%
X87440000Y-53540000D03*
%TO.P,J1,27*%
X89980000Y-51000000D03*
%TO.P,J1,28*%
X89980000Y-53540000D03*
%TO.P,J1,29*%
%TO.N,HX_DOUT*%
X92520000Y-51000000D03*
%TO.P,J1,30*%
%TO.N,N/C*%
X92520000Y-53540000D03*
%TO.P,J1,31*%
%TO.N,HX_SCK*%
X95060000Y-51000000D03*
%TO.P,J1,32*%
%TO.N,SERVO_SIG*%
X95060000Y-53540000D03*
%TO.P,J1,33*%
%TO.N,LED_PWM*%
X97600000Y-51000000D03*
%TO.P,J1,34*%
%TO.N,GND*%
X97600000Y-53540000D03*
%TO.P,J1,35*%
%TO.N,N/C*%
X100140000Y-51000000D03*
%TO.P,J1,36*%
X100140000Y-53540000D03*
%TO.P,J1,37*%
X102680000Y-51000000D03*
%TO.P,J1,38*%
X102680000Y-53540000D03*
%TO.P,J1,39*%
%TO.N,GND*%
X105220000Y-51000000D03*
%TO.P,J1,40*%
%TO.N,N/C*%
X105220000Y-53540000D03*
%TD*%
D12*
%TO.P,C7,1*%
%TO.N,VSERVO*%
X83860000Y-86720000D03*
D13*
%TO.P,C7,2*%
%TO.N,GND_SERVO*%
X87360000Y-86720000D03*
%TD*%
D10*
%TO.P,J4,1*%
%TO.N,VSERVO*%
X70470000Y-75030000D03*
D11*
%TO.P,J4,2*%
%TO.N,GND_SERVO*%
X73010000Y-75030000D03*
%TD*%
D10*
%TO.P,J7,1*%
%TO.N,+5V*%
X94970000Y-75030000D03*
D11*
%TO.P,J7,2*%
%TO.N,LED_CATHODE*%
X97510000Y-75030000D03*
%TD*%
D10*
%TO.P,J5,1*%
%TO.N,SERVO_SIG_OUT*%
X94970000Y-82030000D03*
D11*
%TO.P,J5,2*%
%TO.N,VSERVO*%
X97510000Y-82030000D03*
%TO.P,J5,3*%
%TO.N,GND_SERVO*%
X100050000Y-82030000D03*
%TD*%
D14*
%TO.N,VBATT_SENSE*%
X65100000Y-62100000D03*
X98600000Y-76800000D03*
X68900000Y-62600000D03*
X57500000Y-62100000D03*
X74200000Y-62600000D03*
X93600000Y-71700000D03*
X71900000Y-76800000D03*
X74200000Y-71700000D03*
%TO.N,GND*%
X97500000Y-91000000D03*
X109900000Y-82000000D03*
X58200000Y-84500000D03*
X98800000Y-68200000D03*
X62600000Y-85800000D03*
X107400000Y-90200000D03*
X56500000Y-84000000D03*
X52400000Y-64500000D03*
X90400000Y-67500000D03*
X93356586Y-66856586D03*
X66700000Y-67100000D03*
X93900000Y-62600000D03*
X65000000Y-82200000D03*
X96500000Y-59000000D03*
X65000000Y-83000000D03*
X66700000Y-67100000D03*
X71656587Y-58843413D03*
X79830000Y-54710000D03*
X96800000Y-68400000D03*
X93075000Y-67500000D03*
X73600000Y-83400000D03*
X69700000Y-85800000D03*
X102900000Y-64500000D03*
X52500000Y-83300000D03*
X58000000Y-67000000D03*
X96500000Y-77375000D03*
X65825000Y-73000000D03*
X75475000Y-85631012D03*
X75100000Y-91800000D03*
X74325000Y-82500000D03*
X57600000Y-65500000D03*
%TO.N,LED_PWM*%
X97600000Y-52189997D03*
%TO.N,LED_GATE*%
X87800000Y-63800000D03*
X99800000Y-83800000D03*
X90400000Y-63800000D03*
X92500000Y-66900000D03*
%TO.N,AVDD*%
X94900000Y-68800000D03*
X93800000Y-85600000D03*
X54700000Y-89700000D03*
X98800000Y-66900000D03*
X93800000Y-88900000D03*
%TO.N,CELL_A-*%
X62200000Y-88500000D03*
%TO.N,VSERVO*%
X63300000Y-77800000D03*
X79300000Y-89000000D03*
%TO.N,GND_SERVO*%
X59000000Y-65500000D03*
X87400000Y-84500000D03*
X62100000Y-69900000D03*
X73000000Y-78100000D03*
X59300000Y-78900000D03*
X80600000Y-88900000D03*
X64600000Y-78300000D03*
%TO.N,SERVO_SIG_OUT*%
X83100000Y-73800000D03*
X69600000Y-70500000D03*
X71900000Y-70500000D03*
%TO.N,AVDD_BASE*%
X55900000Y-82200000D03*
X51200000Y-85000000D03*
%TO.N,+3V3*%
X51000000Y-60800000D03*
X66400000Y-68800000D03*
X66400000Y-74900000D03*
X73800000Y-80900000D03*
X60600000Y-60800000D03*
X81800000Y-77400000D03*
X66500000Y-80900000D03*
X74900000Y-88000000D03*
%TO.N,VBATT*%
X71900000Y-66000000D03*
X61700000Y-66000000D03*
X68900000Y-66000000D03*
%TO.N,BEAM_RX*%
X70800000Y-58800000D03*
X68412761Y-54056624D03*
X81800000Y-73800000D03*
%TO.N,AVDD_FB*%
X72600000Y-64300000D03*
X85300000Y-65800000D03*
X109400000Y-65800000D03*
X62200000Y-82000000D03*
X73200000Y-66500000D03*
%TO.N,VBG*%
X71900000Y-68800000D03*
X60400000Y-87200000D03*
%TO.N,HX_SCK*%
X95100281Y-52190598D03*
X68400000Y-86900000D03*
%TO.N,HX_DOUT*%
X67800000Y-57200000D03*
X67800000Y-74900000D03*
X92499853Y-52190148D03*
%TO.N,SPI_CE0*%
X80000000Y-76100000D03*
X84900000Y-54700000D03*
%TO.N,SPI_MOSI*%
X79100000Y-50900000D03*
X78200000Y-76100000D03*
%TO.N,SPI_MISO*%
X76900000Y-86200000D03*
X76900000Y-80355000D03*
%TO.N,SPI_SCLK*%
X84900000Y-52189997D03*
X75800000Y-56500000D03*
X75800000Y-84900000D03*
%TD*%
%TO.N,VBATT_SENSE*%
D15*
X71900000Y-76200000D02*
X74200000Y-76200000D01*
X71900000Y-76800000D02*
X71900000Y-76200000D01*
X65100000Y-62100000D02*
X57500000Y-62100000D01*
X74200000Y-62600000D02*
X68900000Y-62600000D01*
X93600000Y-76800000D02*
X98600000Y-76800000D01*
X74200000Y-76200000D02*
X74200000Y-62600000D01*
X93600000Y-71700000D02*
X93600000Y-76800000D01*
%TO.N,GND*%
X96800000Y-68200000D02*
X98800000Y-68200000D01*
X96500000Y-59000000D02*
X93900000Y-61600000D01*
X65705000Y-52415000D02*
X67120000Y-51000000D01*
X69700000Y-85800000D02*
X62600000Y-85800000D01*
X79311827Y-49875000D02*
X80285991Y-49875000D01*
X78525000Y-50661827D02*
X79311827Y-49875000D01*
X63165000Y-52415000D02*
X65705000Y-52415000D01*
X64525000Y-64925000D02*
X66700000Y-67100000D01*
X71000000Y-52340000D02*
X72200000Y-53540000D01*
X80945000Y-50824009D02*
X80945000Y-51465991D01*
X92850000Y-67363173D02*
X93075000Y-67138173D01*
X79830000Y-53550000D02*
X79820000Y-53540000D01*
X58761827Y-64925000D02*
X64525000Y-64925000D01*
X65540000Y-73000000D02*
X63510000Y-75030000D01*
X97500000Y-89040000D02*
X97510000Y-89030000D01*
X93680025Y-77375000D02*
X92850000Y-76544975D01*
X58000000Y-65686827D02*
X58761827Y-64925000D01*
X80285991Y-52125000D02*
X80285991Y-53074009D01*
X86315000Y-49875000D02*
X81894009Y-49875000D01*
X73600000Y-83756011D02*
X75475000Y-85631012D01*
X73325000Y-52415000D02*
X77745991Y-52415000D01*
X80945000Y-51465991D02*
X80285991Y-52125000D01*
X71000000Y-50749009D02*
X71000000Y-52340000D01*
X92850000Y-76544975D02*
X92850000Y-67363173D01*
X55800000Y-83300000D02*
X52500000Y-83300000D01*
X88050000Y-70536827D02*
X88050000Y-77530000D01*
X80945000Y-50534009D02*
X80945000Y-51465991D01*
X72200000Y-53540000D02*
X73325000Y-52415000D01*
X67120000Y-51000000D02*
X68245000Y-49875000D01*
X72200000Y-58300000D02*
X71656587Y-58843413D01*
X81894009Y-49875000D02*
X80945000Y-50824009D01*
X92261827Y-66325000D02*
X88050000Y-70536827D01*
X58000000Y-67000000D02*
X58000000Y-65686827D01*
X78525000Y-51635991D02*
X78525000Y-50661827D01*
X72200000Y-53540000D02*
X72200000Y-58300000D01*
X97500000Y-91000000D02*
X97500000Y-89040000D01*
X73600000Y-83400000D02*
X73600000Y-83756011D01*
X80285991Y-49875000D02*
X80945000Y-50534009D01*
X96800000Y-68400000D02*
X96800000Y-68200000D01*
X96500000Y-77375000D02*
X93680025Y-77375000D01*
X65825000Y-73000000D02*
X65540000Y-73000000D01*
X77745991Y-52415000D02*
X78525000Y-51635991D01*
X56500000Y-84000000D02*
X55800000Y-83300000D01*
X62040000Y-53540000D02*
X63165000Y-52415000D01*
X87440000Y-51000000D02*
X86315000Y-49875000D01*
X79830000Y-54710000D02*
X79830000Y-53550000D01*
X70125991Y-49875000D02*
X71000000Y-50749009D01*
X93900000Y-61600000D02*
X93900000Y-62600000D01*
X80285991Y-53074009D02*
X79820000Y-53540000D01*
X93075000Y-67138173D02*
X93075000Y-66661827D01*
X92738173Y-66325000D02*
X92261827Y-66325000D01*
X93075000Y-66661827D02*
X92738173Y-66325000D01*
X68245000Y-49875000D02*
X70125991Y-49875000D01*
X80945000Y-51465991D02*
X80910991Y-51500000D01*
%TO.N,LED_GATE*%
X87800000Y-63800000D02*
X90400000Y-63800000D01*
X96100000Y-83800000D02*
X99800000Y-83800000D01*
X96100000Y-80800000D02*
X96100000Y-83800000D01*
X92500000Y-66900000D02*
X92500000Y-80800000D01*
X92500000Y-80800000D02*
X96100000Y-80800000D01*
%TO.N,AVDD*%
X99300000Y-76100000D02*
X98700000Y-76100000D01*
X54700000Y-89700000D02*
X54700000Y-90200000D01*
X80500000Y-90200000D02*
X80500000Y-89600000D01*
X93800000Y-89000000D02*
X93800000Y-88900000D01*
X94900000Y-68800000D02*
X94900000Y-66900000D01*
X101000000Y-83200000D02*
X101200000Y-83200000D01*
X99300000Y-80800000D02*
X99300000Y-76100000D01*
X94900000Y-73800000D02*
X94900000Y-68800000D01*
X81300000Y-89000000D02*
X95000000Y-89000000D01*
X101200000Y-83200000D02*
X101200000Y-80800000D01*
X54700000Y-90200000D02*
X80500000Y-90200000D01*
X80500000Y-89600000D02*
X81300000Y-89600000D01*
X93800000Y-85000000D02*
X101000000Y-85000000D01*
X101000000Y-85000000D02*
X101000000Y-83200000D01*
X93800000Y-85600000D02*
X93800000Y-85000000D01*
X98700000Y-76100000D02*
X98700000Y-73800000D01*
X101200000Y-80800000D02*
X99300000Y-80800000D01*
X98700000Y-73800000D02*
X94900000Y-73800000D01*
X81300000Y-89600000D02*
X81300000Y-89000000D01*
X94900000Y-66900000D02*
X98800000Y-66900000D01*
%TO.N,CELL_A-*%
X101200000Y-89000000D02*
X102600000Y-89000000D01*
X75600000Y-88700000D02*
X75600000Y-87900000D01*
X75600000Y-87900000D02*
X78600000Y-87900000D01*
X62200000Y-88700000D02*
X75600000Y-88700000D01*
X78600000Y-87800000D02*
X101200000Y-87800000D01*
X101200000Y-87800000D02*
X101200000Y-89000000D01*
X78600000Y-87900000D02*
X78600000Y-87800000D01*
X62200000Y-88500000D02*
X62200000Y-88700000D01*
%TO.N,VSERVO*%
X63300000Y-77800000D02*
X62900000Y-77800000D01*
X76100000Y-89200000D02*
X76100000Y-89000000D01*
X69500000Y-76600000D02*
X65700000Y-76600000D01*
X61500000Y-82700000D02*
X61500000Y-89200000D01*
X70500000Y-75000000D02*
X69500000Y-75000000D01*
X63300000Y-77200000D02*
X63300000Y-77800000D01*
X76100000Y-89000000D02*
X79300000Y-89000000D01*
X62900000Y-77800000D02*
X62900000Y-82700000D01*
X65700000Y-77200000D02*
X63300000Y-77200000D01*
X65700000Y-76600000D02*
X65700000Y-77200000D01*
X62900000Y-82700000D02*
X61500000Y-82700000D01*
X69500000Y-75000000D02*
X69500000Y-76600000D01*
X61500000Y-89200000D02*
X76100000Y-89200000D01*
%TO.N,GND_SERVO*%
X100000000Y-83100000D02*
X100000000Y-82000000D01*
X59300000Y-78900000D02*
X59300000Y-89700000D01*
X59000000Y-65500000D02*
X59000000Y-65300000D01*
X62400000Y-66700000D02*
X62100000Y-66700000D01*
X62400000Y-65300000D02*
X62400000Y-66700000D01*
X100500000Y-83100000D02*
X100000000Y-83100000D01*
X73000000Y-78100000D02*
X64600000Y-78100000D01*
X80000000Y-88900000D02*
X80600000Y-88900000D01*
X62100000Y-66700000D02*
X62100000Y-69900000D01*
X59000000Y-65300000D02*
X62400000Y-65300000D01*
X100500000Y-84500000D02*
X100500000Y-83100000D01*
X80000000Y-89700000D02*
X80000000Y-88900000D01*
X87400000Y-84500000D02*
X100500000Y-84500000D01*
X64600000Y-78100000D02*
X64600000Y-78300000D01*
X59300000Y-89700000D02*
X80000000Y-89700000D01*
%TO.N,SERVO_SIG_OUT*%
X83100000Y-73800000D02*
X83100000Y-75800000D01*
X86700000Y-76300000D02*
X86700000Y-82000000D01*
X86700000Y-82000000D02*
X95000000Y-82000000D01*
X84600000Y-76300000D02*
X86700000Y-76300000D01*
X84600000Y-75800000D02*
X84600000Y-76300000D01*
X69600000Y-70500000D02*
X71900000Y-70500000D01*
X83100000Y-75800000D02*
X84600000Y-75800000D01*
%TO.N,AVDD_BASE*%
X51200000Y-82200000D02*
X51200000Y-85000000D01*
X55900000Y-82200000D02*
X51200000Y-82200000D01*
%TO.N,+3V3*%
X74900000Y-88000000D02*
X74900000Y-87400000D01*
X80000000Y-77800000D02*
X79900000Y-77800000D01*
X79900000Y-77500000D02*
X83000000Y-77500000D01*
X80000000Y-87400000D02*
X80000000Y-77800000D01*
X79900000Y-77800000D02*
X79900000Y-77500000D01*
X74900000Y-87400000D02*
X80000000Y-87400000D01*
X51000000Y-60800000D02*
X60600000Y-60800000D01*
X81800000Y-77500000D02*
X81800000Y-77400000D01*
X66500000Y-80900000D02*
X73800000Y-80900000D01*
X66400000Y-68800000D02*
X66400000Y-74900000D01*
%TO.N,VBATT*%
X71900000Y-66000000D02*
X68900000Y-66000000D01*
X61000000Y-66000000D02*
X61000000Y-75000000D01*
X61700000Y-66000000D02*
X61000000Y-66000000D01*
%TO.N,BEAM_RX*%
X70800000Y-58800000D02*
X70800000Y-53990991D01*
X84100000Y-77500000D02*
X85500000Y-77500000D01*
X81800000Y-76300000D02*
X84100000Y-76300000D01*
X84100000Y-76300000D02*
X84100000Y-77500000D01*
X81800000Y-73800000D02*
X81800000Y-76300000D01*
X70125991Y-54665000D02*
X69021137Y-54665000D01*
X70800000Y-53990991D02*
X70125991Y-54665000D01*
X69021137Y-54665000D02*
X68412761Y-54056624D01*
%TO.N,AVDD_FB*%
X65200000Y-76100000D02*
X69000000Y-76100000D01*
X72600000Y-71200000D02*
X72600000Y-64300000D01*
X69000000Y-76100000D02*
X69000000Y-71200000D01*
X85300000Y-65800000D02*
X109400000Y-65800000D01*
X65200000Y-76700000D02*
X65200000Y-76100000D01*
X72600000Y-66500000D02*
X73200000Y-66500000D01*
X69000000Y-71200000D02*
X72600000Y-71200000D01*
X62200000Y-82000000D02*
X62200000Y-76700000D01*
X62200000Y-76700000D02*
X65200000Y-76700000D01*
%TO.N,VBG*%
X68500000Y-75600000D02*
X68500000Y-68800000D01*
X60400000Y-76200000D02*
X64700000Y-76200000D01*
X60400000Y-87200000D02*
X60400000Y-76200000D01*
X64700000Y-75600000D02*
X68500000Y-75600000D01*
X64700000Y-76200000D02*
X64700000Y-75600000D01*
X68500000Y-68800000D02*
X71900000Y-68800000D01*
%TO.N,HX_SCK*%
X80700000Y-76800000D02*
X79400000Y-76800000D01*
X79500000Y-86900000D02*
X68400000Y-86900000D01*
X84200000Y-72200000D02*
X82100000Y-72200000D01*
X95060000Y-51000000D02*
X95060000Y-52150317D01*
X86100000Y-53790991D02*
X86100000Y-55900000D01*
X95100000Y-52200000D02*
X93700000Y-52200000D01*
X82100000Y-72200000D02*
X82100000Y-72700000D01*
X92985991Y-54665000D02*
X86974009Y-54665000D01*
X80700000Y-72700000D02*
X80700000Y-76800000D01*
X79400000Y-77300000D02*
X79500000Y-77300000D01*
X93700000Y-52200000D02*
X93700000Y-53300000D01*
X84200000Y-55900000D02*
X84200000Y-72200000D01*
X86974009Y-54665000D02*
X86100000Y-53790991D01*
X79500000Y-77300000D02*
X79500000Y-86900000D01*
X86100000Y-53300000D02*
X86100000Y-53790991D01*
X82100000Y-72700000D02*
X80700000Y-72700000D01*
X86100000Y-55900000D02*
X84200000Y-55900000D01*
X86100000Y-53790991D02*
X86100000Y-53500000D01*
X93700000Y-53950991D02*
X92985991Y-54665000D01*
X79400000Y-76800000D02*
X79400000Y-77300000D01*
X95060000Y-52150317D02*
X95100281Y-52190598D01*
X93700000Y-53300000D02*
X93700000Y-53950991D01*
%TO.N,HX_DOUT*%
X67800000Y-57200000D02*
X67800000Y-74900000D01*
%TO.N,SPI_CE0*%
X84900000Y-53540000D02*
X84900000Y-54700000D01*
X83700000Y-54700000D02*
X83700000Y-71700000D01*
X81600000Y-71700000D02*
X81600000Y-72200000D01*
X83700000Y-71700000D02*
X81600000Y-71700000D01*
X84900000Y-54700000D02*
X83700000Y-54700000D01*
X81600000Y-72200000D02*
X80000000Y-72200000D01*
X80000000Y-72200000D02*
X80000000Y-76100000D01*
%TO.N,SPI_MOSI*%
X78500000Y-52200000D02*
X78500000Y-55900000D01*
X78500000Y-55900000D02*
X78200000Y-55900000D01*
X79820000Y-52180000D02*
X79800000Y-52200000D01*
X78200000Y-55900000D02*
X78200000Y-76100000D01*
X79820000Y-51000000D02*
X79820000Y-52180000D01*
X79800000Y-52200000D02*
X78500000Y-52200000D01*
%TO.N,SPI_MISO*%
X78900000Y-71700000D02*
X78900000Y-76800000D01*
X78900000Y-76800000D02*
X79000000Y-76800000D01*
X81100000Y-52200000D02*
X81100000Y-71700000D01*
X76900000Y-83900000D02*
X76900000Y-86200000D01*
X82400000Y-52200000D02*
X81100000Y-52200000D01*
X79000000Y-76800000D02*
X79000000Y-81800000D01*
X79000000Y-81800000D02*
X76900000Y-83900000D01*
X82360000Y-51000000D02*
X82360000Y-52160000D01*
X82360000Y-52160000D02*
X82400000Y-52200000D01*
X76900000Y-83900000D02*
X76900000Y-80355000D01*
X81100000Y-71700000D02*
X78900000Y-71700000D01*
%TO.N,SPI_SCLK*%
X75800000Y-56500000D02*
X75800000Y-84900000D01*
%TD*%
M02*
