%TF.GenerationSoftware,KiCad,Pcbnew,10.0.4*%
%TF.CreationDate,2026-08-28T23:42:00-04:00*%
%TF.ProjectId,smartbin-hat,736d6172-7462-4696-9e2d-6861742e6b69,v1*%
%TF.SameCoordinates,Original*%
%TF.FileFunction,Paste,Top*%
%TF.FilePolarity,Positive*%
%FSLAX46Y46*%
G04 Gerber Fmt 4.6, Leading zero omitted, Abs format (unit mm)*
G04 Created by KiCad (PCBNEW 10.0.4) date 2026-08-28 23:42:00*
%MOMM*%
%LPD*%
G01*
G04 APERTURE LIST*
G04 Aperture macros list*
%AMRoundRect*
0 Rectangle with rounded corners*
0 $1 Rounding radius*
0 $2 $3 $4 $5 $6 $7 $8 $9 X,Y pos of 4 corners*
0 Add a 4 corners polygon primitive as box body*
4,1,4,$2,$3,$4,$5,$6,$7,$8,$9,$2,$3,0*
0 Add four circle primitives for the rounded corners*
1,1,$1+$1,$2,$3*
1,1,$1+$1,$4,$5*
1,1,$1+$1,$6,$7*
1,1,$1+$1,$8,$9*
0 Add four rect primitives between the rounded corners*
20,1,$1+$1,$2,$3,$4,$5,0*
20,1,$1+$1,$4,$5,$6,$7,0*
20,1,$1+$1,$6,$7,$8,$9,0*
20,1,$1+$1,$8,$9,$2,$3,0*%
G04 Aperture macros list end*
%ADD10RoundRect,0.250000X-0.250000X-0.475000X0.250000X-0.475000X0.250000X0.475000X-0.250000X0.475000X0*%
%ADD11RoundRect,0.250000X-0.262500X-0.450000X0.262500X-0.450000X0.262500X0.450000X-0.262500X0.450000X0*%
%ADD12RoundRect,0.150000X-0.587500X-0.150000X0.587500X-0.150000X0.587500X0.150000X-0.587500X0.150000X0*%
%ADD13RoundRect,0.162500X-0.750000X-0.162500X0.750000X-0.162500X0.750000X0.162500X-0.750000X0.162500X0*%
%ADD14RoundRect,0.150000X-0.825000X-0.150000X0.825000X-0.150000X0.825000X0.150000X-0.825000X0.150000X0*%
%ADD15RoundRect,0.250000X-0.312500X-0.625000X0.312500X-0.625000X0.312500X0.625000X-0.312500X0.625000X0*%
G04 APERTURE END LIST*
D10*
%TO.C,C6*%
X108450000Y-83320000D03*
X110350000Y-83320000D03*
%TD*%
D11*
%TO.C,R6*%
X85967500Y-63850000D03*
X87792500Y-63850000D03*
%TD*%
D10*
%TO.C,C4*%
X50950000Y-65820000D03*
X52850000Y-65820000D03*
%TD*%
%TO.C,C8*%
X59950000Y-68820000D03*
X61850000Y-68820000D03*
%TD*%
D11*
%TO.C,R5*%
X63967500Y-63850000D03*
X65792500Y-63850000D03*
%TD*%
D12*
%TO.C,Q1*%
X51192500Y-88150000D03*
X51192500Y-90050000D03*
X53067500Y-89100000D03*
%TD*%
D11*
%TO.C,R3*%
X79467500Y-64350000D03*
X81292500Y-64350000D03*
%TD*%
D10*
%TO.C,C3*%
X94950000Y-68820000D03*
X96850000Y-68820000D03*
%TD*%
D11*
%TO.C,R9*%
X98967500Y-60850000D03*
X100792500Y-60850000D03*
%TD*%
D12*
%TO.C,Q2*%
X108692500Y-88150000D03*
X108692500Y-90050000D03*
X110567500Y-89100000D03*
%TD*%
D13*
%TO.C,U1*%
X60362500Y-80905000D03*
X60362500Y-82175000D03*
X60362500Y-83445000D03*
X60362500Y-84715000D03*
X60362500Y-85985000D03*
X60362500Y-87255000D03*
X60362500Y-88525000D03*
X60362500Y-89795000D03*
X66537500Y-89795000D03*
X66537500Y-88525000D03*
X66537500Y-87255000D03*
X66537500Y-85985000D03*
X66537500Y-84715000D03*
X66537500Y-83445000D03*
X66537500Y-82175000D03*
X66537500Y-80905000D03*
%TD*%
D14*
%TO.C,U2*%
X71925000Y-81155000D03*
X71925000Y-82425000D03*
X71925000Y-83695000D03*
X71925000Y-84965000D03*
X71925000Y-86235000D03*
X71925000Y-87505000D03*
X71925000Y-88775000D03*
X71925000Y-90045000D03*
X76875000Y-90045000D03*
X76875000Y-88775000D03*
X76875000Y-87505000D03*
X76875000Y-86235000D03*
X76875000Y-84965000D03*
X76875000Y-83695000D03*
X76875000Y-82425000D03*
X76875000Y-81155000D03*
%TD*%
D10*
%TO.C,C1*%
X66450000Y-68820000D03*
X68350000Y-68820000D03*
%TD*%
D11*
%TO.C,R8*%
X50967500Y-60850000D03*
X52792500Y-60850000D03*
%TD*%
%TO.C,R1*%
X107967500Y-65850000D03*
X109792500Y-65850000D03*
%TD*%
%TO.C,R4*%
X57467500Y-63850000D03*
X59292500Y-63850000D03*
%TD*%
D15*
%TO.C,R10*%
X51017500Y-83170000D03*
X53942500Y-83170000D03*
%TD*%
D11*
%TO.C,R7*%
X92467500Y-63850000D03*
X94292500Y-63850000D03*
%TD*%
D10*
%TO.C,C5*%
X101450000Y-65820000D03*
X103350000Y-65820000D03*
%TD*%
%TO.C,C2*%
X88450000Y-68820000D03*
X90350000Y-68820000D03*
%TD*%
D11*
%TO.C,R2*%
X72967500Y-64350000D03*
X74792500Y-64350000D03*
%TD*%
M02*
