%TF.GenerationSoftware,KiCad,Pcbnew,10.0.4*%
%TF.CreationDate,2026-08-28T23:42:00-04:00*%
%TF.ProjectId,smartbin-hat,736d6172-7462-4696-9e2d-6861742e6b69,v1*%
%TF.SameCoordinates,Original*%
%TF.FileFunction,Soldermask,Bot*%
%TF.FilePolarity,Negative*%
%FSLAX46Y46*%
G04 Gerber Fmt 4.6, Leading zero omitted, Abs format (unit mm)*
G04 Created by KiCad (PCBNEW 10.0.4) date 2026-08-28 23:42:00*
%MOMM*%
%LPD*%
G01*
G04 APERTURE LIST*
G04 Aperture macros list*
%AMRoundRect*
0 Rectangle with rounded corners*
0 $1 Rounding radius*
0 $2 $3 $4 $5 $6 $7 $8 $9 X,Y pos of 4 corners*
0 Add a 4 corners polygon primitive as box body*
4,1,4,$2,$3,$4,$5,$6,$7,$8,$9,$2,$3,0*
0 Add four circle primitives for the rounded corners*
1,1,$1+$1,$2,$3*
1,1,$1+$1,$4,$5*
1,1,$1+$1,$6,$7*
1,1,$1+$1,$8,$9*
0 Add four rect primitives between the rounded corners*
20,1,$1+$1,$2,$3,$4,$5,0*
20,1,$1+$1,$4,$5,$6,$7,0*
20,1,$1+$1,$6,$7,$8,$9,0*
20,1,$1+$1,$8,$9,$2,$3,0*%
G04 Aperture macros list end*
%ADD10C,2.700000*%
%ADD11R,1.700000X1.700000*%
%ADD12C,1.700000*%
%ADD13RoundRect,0.250000X-0.550000X-0.550000X0.550000X-0.550000X0.550000X0.550000X-0.550000X0.550000X0*%
%ADD14C,1.600000*%
G04 APERTURE END LIST*
D10*
%TO.C,H1*%
X52000000Y-50500000D03*
%TD*%
D11*
%TO.C,J3*%
X94970000Y-89030000D03*
D12*
X97510000Y-89030000D03*
X100050000Y-89030000D03*
X102590000Y-89030000D03*
%TD*%
D11*
%TO.C,J8*%
X82970000Y-77530000D03*
D12*
X85510000Y-77530000D03*
X88050000Y-77530000D03*
%TD*%
D11*
%TO.C,J9*%
X79970000Y-70530000D03*
D12*
X82510000Y-70530000D03*
%TD*%
D10*
%TO.C,H2*%
X111000000Y-50500000D03*
%TD*%
D11*
%TO.C,J6*%
X60970000Y-75030000D03*
D12*
X63510000Y-75030000D03*
%TD*%
D11*
%TO.C,J1*%
X56960000Y-51000000D03*
D12*
X56960000Y-53540000D03*
X59500000Y-51000000D03*
X59500000Y-53540000D03*
X62040000Y-51000000D03*
X62040000Y-53540000D03*
X64580000Y-51000000D03*
X64580000Y-53540000D03*
X67120000Y-51000000D03*
X67120000Y-53540000D03*
X69660000Y-51000000D03*
X69660000Y-53540000D03*
X72200000Y-51000000D03*
X72200000Y-53540000D03*
X74740000Y-51000000D03*
X74740000Y-53540000D03*
X77280000Y-51000000D03*
X77280000Y-53540000D03*
X79820000Y-51000000D03*
X79820000Y-53540000D03*
X82360000Y-51000000D03*
X82360000Y-53540000D03*
X84900000Y-51000000D03*
X84900000Y-53540000D03*
X87440000Y-51000000D03*
X87440000Y-53540000D03*
X89980000Y-51000000D03*
X89980000Y-53540000D03*
X92520000Y-51000000D03*
X92520000Y-53540000D03*
X95060000Y-51000000D03*
X95060000Y-53540000D03*
X97600000Y-51000000D03*
X97600000Y-53540000D03*
X100140000Y-51000000D03*
X100140000Y-53540000D03*
X102680000Y-51000000D03*
X102680000Y-53540000D03*
X105220000Y-51000000D03*
X105220000Y-53540000D03*
%TD*%
D13*
%TO.C,C7*%
X83860000Y-86720000D03*
D14*
X87360000Y-86720000D03*
%TD*%
D11*
%TO.C,J4*%
X70470000Y-75030000D03*
D12*
X73010000Y-75030000D03*
%TD*%
D11*
%TO.C,J7*%
X94970000Y-75030000D03*
D12*
X97510000Y-75030000D03*
%TD*%
D10*
%TO.C,H3*%
X53500000Y-73900000D03*
%TD*%
D11*
%TO.C,J5*%
X94970000Y-82030000D03*
D12*
X97510000Y-82030000D03*
X100050000Y-82030000D03*
%TD*%
D10*
%TO.C,H4*%
X109000000Y-73900000D03*
%TD*%
M02*
