M48
; DRILL file KiCad 10.0.4 date 2026-08-28T23:41:57
; FORMAT={-:-/ absolute / metric / decimal}
; #@! TF.CreationDate,2026-08-28T23:41:57-04:00
; #@! TF.GenerationSoftware,Kicad,Pcbnew,10.0.4
; #@! TF.FileFunction,Plated,1,2,PTH
FMAT,2
METRIC
; #@! TA.AperFunction,Plated,PTH,ViaDrill
T1C0.300
; #@! TA.AperFunction,Plated,PTH,ComponentDrill
T2C0.800
; #@! TA.AperFunction,Plated,PTH,ComponentDrill
T3C1.000
%
G90
G05
T1
X51.0Y-60.8
X51.2Y-85.0
X52.4Y-64.5
X52.5Y-83.3
X54.7Y-89.7
X55.9Y-82.2
X56.5Y-84.0
X57.5Y-62.1
X57.6Y-65.5
X58.0Y-67.0
X58.2Y-84.5
X59.0Y-65.5
X59.3Y-78.9
X60.4Y-87.2
X60.6Y-60.8
X61.7Y-66.0
X62.1Y-69.9
X62.2Y-82.0
X62.2Y-88.5
X62.6Y-85.8
X63.3Y-77.8
X64.6Y-78.3
X65.0Y-82.2
X65.0Y-83.0
X65.1Y-62.1
X65.825Y-73.0
X66.4Y-68.8
X66.4Y-74.9
X66.5Y-80.9
X66.7Y-67.1
X66.7Y-67.1
X67.8Y-57.2
X67.8Y-74.9
X68.4Y-86.9
X68.413Y-54.057
X68.9Y-62.6
X68.9Y-66.0
X69.6Y-70.5
X69.7Y-85.8
X70.8Y-58.8
X71.657Y-58.843
X71.9Y-66.0
X71.9Y-68.8
X71.9Y-70.5
X71.9Y-76.8
X72.6Y-64.3
X73.0Y-78.1
X73.2Y-66.5
X73.6Y-83.4
X73.8Y-80.9
X74.2Y-62.6
X74.2Y-71.7
X74.325Y-82.5
X74.9Y-88.0
X75.1Y-91.8
X75.475Y-85.631
X75.8Y-56.5
X75.8Y-84.9
X76.9Y-80.355
X76.9Y-86.2
X78.2Y-76.1
X79.1Y-50.9
X79.3Y-89.0
X79.83Y-54.71
X80.0Y-76.1
X80.6Y-88.9
X81.8Y-73.8
X81.8Y-77.4
X83.1Y-73.8
X84.9Y-52.19
X84.9Y-54.7
X85.3Y-65.8
X87.4Y-84.5
X87.8Y-63.8
X90.4Y-63.8
X90.4Y-67.5
X92.5Y-52.19
X92.5Y-66.9
X93.075Y-67.5
X93.357Y-66.857
X93.6Y-71.7
X93.8Y-85.6
X93.8Y-88.9
X93.9Y-62.6
X94.9Y-68.8
X95.1Y-52.191
X96.5Y-59.0
X96.5Y-77.375
X96.8Y-68.4
X97.5Y-91.0
X97.6Y-52.19
X98.6Y-76.8
X98.8Y-66.9
X98.8Y-68.2
X99.8Y-83.8
X102.9Y-64.5
X107.4Y-90.2
X109.4Y-65.8
X109.9Y-82.0
T2
X83.86Y-86.72
X87.36Y-86.72
T3
X56.96Y-51.0
X56.96Y-53.54
X59.5Y-51.0
X59.5Y-53.54
X60.97Y-75.03
X62.04Y-51.0
X62.04Y-53.54
X63.51Y-75.03
X64.58Y-51.0
X64.58Y-53.54
X67.12Y-51.0
X67.12Y-53.54
X69.66Y-51.0
X69.66Y-53.54
X70.47Y-75.03
X72.2Y-51.0
X72.2Y-53.54
X73.01Y-75.03
X74.74Y-51.0
X74.74Y-53.54
X77.28Y-51.0
X77.28Y-53.54
X79.82Y-51.0
X79.82Y-53.54
X79.97Y-70.53
X82.36Y-51.0
X82.36Y-53.54
X82.51Y-70.53
X82.97Y-77.53
X84.9Y-51.0
X84.9Y-53.54
X85.51Y-77.53
X87.44Y-51.0
X87.44Y-53.54
X88.05Y-77.53
X89.98Y-51.0
X89.98Y-53.54
X92.52Y-51.0
X92.52Y-53.54
X94.97Y-75.03
X94.97Y-82.03
X94.97Y-89.03
X95.06Y-51.0
X95.06Y-53.54
X97.51Y-75.03
X97.51Y-82.03
X97.51Y-89.03
X97.6Y-51.0
X97.6Y-53.54
X100.05Y-82.03
X100.05Y-89.03
X100.14Y-51.0
X100.14Y-53.54
X102.59Y-89.03
X102.68Y-51.0
X102.68Y-53.54
X105.22Y-51.0
X105.22Y-53.54
M30
