ISO-10303-21;
HEADER;
FILE_DESCRIPTION(('Open CASCADE Model'),'2;1');
FILE_NAME('Open CASCADE Shape Model','2026-08-27T00:01:33',('Author'),(
    'Open CASCADE'),'Open CASCADE STEP processor 7.9','Open CASCADE 7.9'
  ,'Unknown');
FILE_SCHEMA(('AUTOMOTIVE_DESIGN { 1 0 10303 214 1 1 1 1 }'));
ENDSEC;
DATA;
#1 = APPLICATION_PROTOCOL_DEFINITION('international standard',
  'automotive_design',2000,#2);
#2 = APPLICATION_CONTEXT(
  'core data for automotive mechanical design processes');
#3 = SHAPE_DEFINITION_REPRESENTATION(#4,#10);
#4 = PRODUCT_DEFINITION_SHAPE('','',#5);
#5 = PRODUCT_DEFINITION('design','',#6,#9);
#6 = PRODUCT_DEFINITION_FORMATION('','',#7);
#7 = PRODUCT('Open CASCADE STEP translator 7.9 11',
  'Open CASCADE STEP translator 7.9 11','',(#8));
#8 = PRODUCT_CONTEXT('',#2,'mechanical');
#9 = PRODUCT_DEFINITION_CONTEXT('part definition',#2,'design');
#10 = ADVANCED_BREP_SHAPE_REPRESENTATION('',(#11,#15),#1049);
#11 = AXIS2_PLACEMENT_3D('',#12,#13,#14);
#12 = CARTESIAN_POINT('',(0.,0.,0.));
#13 = DIRECTION('',(0.,0.,1.));
#14 = DIRECTION('',(1.,0.,-0.));
#15 = MANIFOLD_SOLID_BREP('',#16);
#16 = CLOSED_SHELL('',(#17,#224,#300,#380,#429,#504,#553,#611,#983,#995,
    #1022));
#17 = ADVANCED_FACE('',(#18,#193),#32,.F.);
#18 = FACE_BOUND('',#19,.F.);
#19 = EDGE_LOOP('',(#20,#55,#83,#111,#139,#167));
#20 = ORIENTED_EDGE('',*,*,#21,.F.);
#21 = EDGE_CURVE('',#22,#24,#26,.T.);
#22 = VERTEX_POINT('',#23);
#23 = CARTESIAN_POINT('',(-9.,-8.,0.));
#24 = VERTEX_POINT('',#25);
#25 = CARTESIAN_POINT('',(-9.,-8.,14.));
#26 = SURFACE_CURVE('',#27,(#31,#43),.PCURVE_S1.);
#27 = LINE('',#28,#29);
#28 = CARTESIAN_POINT('',(-9.,-8.,0.));
#29 = VECTOR('',#30,1.);
#30 = DIRECTION('',(0.,0.,1.));
#31 = PCURVE('',#32,#37);
#32 = PLANE('',#33);
#33 = AXIS2_PLACEMENT_3D('',#34,#35,#36);
#34 = CARTESIAN_POINT('',(-9.,-8.,0.));
#35 = DIRECTION('',(1.,0.,0.));
#36 = DIRECTION('',(0.,0.,1.));
#37 = DEFINITIONAL_REPRESENTATION('',(#38),#42);
#38 = LINE('',#39,#40);
#39 = CARTESIAN_POINT('',(0.,0.));
#40 = VECTOR('',#41,1.);
#41 = DIRECTION('',(1.,0.));
#42 = ( GEOMETRIC_REPRESENTATION_CONTEXT(2) 
PARAMETRIC_REPRESENTATION_CONTEXT() REPRESENTATION_CONTEXT('2D SPACE',''
  ) );
#43 = PCURVE('',#44,#49);
#44 = PLANE('',#45);
#45 = AXIS2_PLACEMENT_3D('',#46,#47,#48);
#46 = CARTESIAN_POINT('',(-9.,-8.,0.));
#47 = DIRECTION('',(0.,1.,0.));
#48 = DIRECTION('',(0.,0.,1.));
#49 = DEFINITIONAL_REPRESENTATION('',(#50),#54);
#50 = LINE('',#51,#52);
#51 = CARTESIAN_POINT('',(0.,0.));
#52 = VECTOR('',#53,1.);
#53 = DIRECTION('',(1.,0.));
#54 = ( GEOMETRIC_REPRESENTATION_CONTEXT(2) 
PARAMETRIC_REPRESENTATION_CONTEXT() REPRESENTATION_CONTEXT('2D SPACE',''
  ) );
#55 = ORIENTED_EDGE('',*,*,#56,.F.);
#56 = EDGE_CURVE('',#57,#22,#59,.T.);
#57 = VERTEX_POINT('',#58);
#58 = CARTESIAN_POINT('',(-9.,22.,0.));
#59 = SURFACE_CURVE('',#60,(#64,#71),.PCURVE_S1.);
#60 = LINE('',#61,#62);
#61 = CARTESIAN_POINT('',(-9.,22.,0.));
#62 = VECTOR('',#63,1.);
#63 = DIRECTION('',(0.,-1.,0.));
#64 = PCURVE('',#32,#65);
#65 = DEFINITIONAL_REPRESENTATION('',(#66),#70);
#66 = LINE('',#67,#68);
#67 = CARTESIAN_POINT('',(0.,-30.));
#68 = VECTOR('',#69,1.);
#69 = DIRECTION('',(0.,1.));
#70 = ( GEOMETRIC_REPRESENTATION_CONTEXT(2) 
PARAMETRIC_REPRESENTATION_CONTEXT() REPRESENTATION_CONTEXT('2D SPACE',''
  ) );
#71 = PCURVE('',#72,#77);
#72 = PLANE('',#73);
#73 = AXIS2_PLACEMENT_3D('',#74,#75,#76);
#74 = CARTESIAN_POINT('',(-9.,-8.,0.));
#75 = DIRECTION('',(0.,0.,1.));
#76 = DIRECTION('',(1.,0.,0.));
#77 = DEFINITIONAL_REPRESENTATION('',(#78),#82);
#78 = LINE('',#79,#80);
#79 = CARTESIAN_POINT('',(0.,30.));
#80 = VECTOR('',#81,1.);
#81 = DIRECTION('',(0.,-1.));
#82 = ( GEOMETRIC_REPRESENTATION_CONTEXT(2) 
PARAMETRIC_REPRESENTATION_CONTEXT() REPRESENTATION_CONTEXT('2D SPACE',''
  ) );
#83 = ORIENTED_EDGE('',*,*,#84,.T.);
#84 = EDGE_CURVE('',#57,#85,#87,.T.);
#85 = VERTEX_POINT('',#86);
#86 = CARTESIAN_POINT('',(-9.,22.,5.));
#87 = SURFACE_CURVE('',#88,(#92,#99),.PCURVE_S1.);
#88 = LINE('',#89,#90);
#89 = CARTESIAN_POINT('',(-9.,22.,0.));
#90 = VECTOR('',#91,1.);
#91 = DIRECTION('',(0.,0.,1.));
#92 = PCURVE('',#32,#93);
#93 = DEFINITIONAL_REPRESENTATION('',(#94),#98);
#94 = LINE('',#95,#96);
#95 = CARTESIAN_POINT('',(0.,-30.));
#96 = VECTOR('',#97,1.);
#97 = DIRECTION('',(1.,0.));
#98 = ( GEOMETRIC_REPRESENTATION_CONTEXT(2) 
PARAMETRIC_REPRESENTATION_CONTEXT() REPRESENTATION_CONTEXT('2D SPACE',''
  ) );
#99 = PCURVE('',#100,#105);
#100 = PLANE('',#101);
#101 = AXIS2_PLACEMENT_3D('',#102,#103,#104);
#102 = CARTESIAN_POINT('',(-9.,22.,0.));
#103 = DIRECTION('',(0.,1.,0.));
#104 = DIRECTION('',(0.,0.,1.));
#105 = DEFINITIONAL_REPRESENTATION('',(#106),#110);
#106 = LINE('',#107,#108);
#107 = CARTESIAN_POINT('',(0.,0.));
#108 = VECTOR('',#109,1.);
#109 = DIRECTION('',(1.,0.));
#110 = ( GEOMETRIC_REPRESENTATION_CONTEXT(2) 
PARAMETRIC_REPRESENTATION_CONTEXT() REPRESENTATION_CONTEXT('2D SPACE',''
  ) );
#111 = ORIENTED_EDGE('',*,*,#112,.F.);
#112 = EDGE_CURVE('',#113,#85,#115,.T.);
#113 = VERTEX_POINT('',#114);
#114 = CARTESIAN_POINT('',(-9.,8.,5.));
#115 = SURFACE_CURVE('',#116,(#120,#127),.PCURVE_S1.);
#116 = LINE('',#117,#118);
#117 = CARTESIAN_POINT('',(-9.,8.,5.));
#118 = VECTOR('',#119,1.);
#119 = DIRECTION('',(0.,1.,0.));
#120 = PCURVE('',#32,#121);
#121 = DEFINITIONAL_REPRESENTATION('',(#122),#126);
#122 = LINE('',#123,#124);
#123 = CARTESIAN_POINT('',(5.,-16.));
#124 = VECTOR('',#125,1.);
#125 = DIRECTION('',(0.,-1.));
#126 = ( GEOMETRIC_REPRESENTATION_CONTEXT(2) 
PARAMETRIC_REPRESENTATION_CONTEXT() REPRESENTATION_CONTEXT('2D SPACE',''
  ) );
#127 = PCURVE('',#128,#133);
#128 = PLANE('',#129);
#129 = AXIS2_PLACEMENT_3D('',#130,#131,#132);
#130 = CARTESIAN_POINT('',(-9.,8.,5.));
#131 = DIRECTION('',(0.,0.,1.));
#132 = DIRECTION('',(1.,0.,0.));
#133 = DEFINITIONAL_REPRESENTATION('',(#134),#138);
#134 = LINE('',#135,#136);
#135 = CARTESIAN_POINT('',(0.,0.));
#136 = VECTOR('',#137,1.);
#137 = DIRECTION('',(0.,1.));
#138 = ( GEOMETRIC_REPRESENTATION_CONTEXT(2) 
PARAMETRIC_REPRESENTATION_CONTEXT() REPRESENTATION_CONTEXT('2D SPACE',''
  ) );
#139 = ORIENTED_EDGE('',*,*,#140,.T.);
#140 = EDGE_CURVE('',#113,#141,#143,.T.);
#141 = VERTEX_POINT('',#142);
#142 = CARTESIAN_POINT('',(-9.,8.,14.));
#143 = SURFACE_CURVE('',#144,(#148,#155),.PCURVE_S1.);
#144 = LINE('',#145,#146);
#145 = CARTESIAN_POINT('',(-9.,8.,0.));
#146 = VECTOR('',#147,1.);
#147 = DIRECTION('',(0.,0.,1.));
#148 = PCURVE('',#32,#149);
#149 = DEFINITIONAL_REPRESENTATION('',(#150),#154);
#150 = LINE('',#151,#152);
#151 = CARTESIAN_POINT('',(0.,-16.));
#152 = VECTOR('',#153,1.);
#153 = DIRECTION('',(1.,0.));
#154 = ( GEOMETRIC_REPRESENTATION_CONTEXT(2) 
PARAMETRIC_REPRESENTATION_CONTEXT() REPRESENTATION_CONTEXT('2D SPACE',''
  ) );
#155 = PCURVE('',#156,#161);
#156 = PLANE('',#157);
#157 = AXIS2_PLACEMENT_3D('',#158,#159,#160);
#158 = CARTESIAN_POINT('',(-9.,8.,0.));
#159 = DIRECTION('',(0.,1.,0.));
#160 = DIRECTION('',(0.,0.,1.));
#161 = DEFINITIONAL_REPRESENTATION('',(#162),#166);
#162 = LINE('',#163,#164);
#163 = CARTESIAN_POINT('',(0.,0.));
#164 = VECTOR('',#165,1.);
#165 = DIRECTION('',(1.,0.));
#166 = ( GEOMETRIC_REPRESENTATION_CONTEXT(2) 
PARAMETRIC_REPRESENTATION_CONTEXT() REPRESENTATION_CONTEXT('2D SPACE',''
  ) );
#167 = ORIENTED_EDGE('',*,*,#168,.F.);
#168 = EDGE_CURVE('',#24,#141,#169,.T.);
#169 = SURFACE_CURVE('',#170,(#174,#181),.PCURVE_S1.);
#170 = LINE('',#171,#172);
#171 = CARTESIAN_POINT('',(-9.,-8.,14.));
#172 = VECTOR('',#173,1.);
#173 = DIRECTION('',(0.,1.,0.));
#174 = PCURVE('',#32,#175);
#175 = DEFINITIONAL_REPRESENTATION('',(#176),#180);
#176 = LINE('',#177,#178);
#177 = CARTESIAN_POINT('',(14.,0.));
#178 = VECTOR('',#179,1.);
#179 = DIRECTION('',(0.,-1.));
#180 = ( GEOMETRIC_REPRESENTATION_CONTEXT(2) 
PARAMETRIC_REPRESENTATION_CONTEXT() REPRESENTATION_CONTEXT('2D SPACE',''
  ) );
#181 = PCURVE('',#182,#187);
#182 = PLANE('',#183);
#183 = AXIS2_PLACEMENT_3D('',#184,#185,#186);
#184 = CARTESIAN_POINT('',(-9.,-8.,14.));
#185 = DIRECTION('',(0.,0.,1.));
#186 = DIRECTION('',(1.,0.,0.));
#187 = DEFINITIONAL_REPRESENTATION('',(#188),#192);
#188 = LINE('',#189,#190);
#189 = CARTESIAN_POINT('',(0.,0.));
#190 = VECTOR('',#191,1.);
#191 = DIRECTION('',(0.,1.));
#192 = ( GEOMETRIC_REPRESENTATION_CONTEXT(2) 
PARAMETRIC_REPRESENTATION_CONTEXT() REPRESENTATION_CONTEXT('2D SPACE',''
  ) );
#193 = FACE_BOUND('',#194,.F.);
#194 = EDGE_LOOP('',(#195));
#195 = ORIENTED_EDGE('',*,*,#196,.F.);
#196 = EDGE_CURVE('',#197,#197,#199,.T.);
#197 = VERTEX_POINT('',#198);
#198 = CARTESIAN_POINT('',(-9.,2.65,8.));
#199 = SURFACE_CURVE('',#200,(#205,#212),.PCURVE_S1.);
#200 = CIRCLE('',#201,2.65);
#201 = AXIS2_PLACEMENT_3D('',#202,#203,#204);
#202 = CARTESIAN_POINT('',(-9.,0.,8.));
#203 = DIRECTION('',(1.,0.,0.));
#204 = DIRECTION('',(0.,1.,0.));
#205 = PCURVE('',#32,#206);
#206 = DEFINITIONAL_REPRESENTATION('',(#207),#211);
#207 = CIRCLE('',#208,2.65);
#208 = AXIS2_PLACEMENT_2D('',#209,#210);
#209 = CARTESIAN_POINT('',(8.,-8.));
#210 = DIRECTION('',(0.,-1.));
#211 = ( GEOMETRIC_REPRESENTATION_CONTEXT(2) 
PARAMETRIC_REPRESENTATION_CONTEXT() REPRESENTATION_CONTEXT('2D SPACE',''
  ) );
#212 = PCURVE('',#213,#218);
#213 = CYLINDRICAL_SURFACE('',#214,2.65);
#214 = AXIS2_PLACEMENT_3D('',#215,#216,#217);
#215 = CARTESIAN_POINT('',(-9.,0.,8.));
#216 = DIRECTION('',(-1.,-0.,-0.));
#217 = DIRECTION('',(0.,1.,0.));
#218 = DEFINITIONAL_REPRESENTATION('',(#219),#223);
#219 = LINE('',#220,#221);
#220 = CARTESIAN_POINT('',(-0.,0.));
#221 = VECTOR('',#222,1.);
#222 = DIRECTION('',(-1.,0.));
#223 = ( GEOMETRIC_REPRESENTATION_CONTEXT(2) 
PARAMETRIC_REPRESENTATION_CONTEXT() REPRESENTATION_CONTEXT('2D SPACE',''
  ) );
#224 = ADVANCED_FACE('',(#225),#44,.F.);
#225 = FACE_BOUND('',#226,.F.);
#226 = EDGE_LOOP('',(#227,#250,#251,#274));
#227 = ORIENTED_EDGE('',*,*,#228,.F.);
#228 = EDGE_CURVE('',#22,#229,#231,.T.);
#229 = VERTEX_POINT('',#230);
#230 = CARTESIAN_POINT('',(9.,-8.,0.));
#231 = SURFACE_CURVE('',#232,(#236,#243),.PCURVE_S1.);
#232 = LINE('',#233,#234);
#233 = CARTESIAN_POINT('',(-9.,-8.,0.));
#234 = VECTOR('',#235,1.);
#235 = DIRECTION('',(1.,0.,0.));
#236 = PCURVE('',#44,#237);
#237 = DEFINITIONAL_REPRESENTATION('',(#238),#242);
#238 = LINE('',#239,#240);
#239 = CARTESIAN_POINT('',(0.,0.));
#240 = VECTOR('',#241,1.);
#241 = DIRECTION('',(0.,1.));
#242 = ( GEOMETRIC_REPRESENTATION_CONTEXT(2) 
PARAMETRIC_REPRESENTATION_CONTEXT() REPRESENTATION_CONTEXT('2D SPACE',''
  ) );
#243 = PCURVE('',#72,#244);
#244 = DEFINITIONAL_REPRESENTATION('',(#245),#249);
#245 = LINE('',#246,#247);
#246 = CARTESIAN_POINT('',(0.,0.));
#247 = VECTOR('',#248,1.);
#248 = DIRECTION('',(1.,0.));
#249 = ( GEOMETRIC_REPRESENTATION_CONTEXT(2) 
PARAMETRIC_REPRESENTATION_CONTEXT() REPRESENTATION_CONTEXT('2D SPACE',''
  ) );
#250 = ORIENTED_EDGE('',*,*,#21,.T.);
#251 = ORIENTED_EDGE('',*,*,#252,.T.);
#252 = EDGE_CURVE('',#24,#253,#255,.T.);
#253 = VERTEX_POINT('',#254);
#254 = CARTESIAN_POINT('',(9.,-8.,14.));
#255 = SURFACE_CURVE('',#256,(#260,#267),.PCURVE_S1.);
#256 = LINE('',#257,#258);
#257 = CARTESIAN_POINT('',(-9.,-8.,14.));
#258 = VECTOR('',#259,1.);
#259 = DIRECTION('',(1.,0.,0.));
#260 = PCURVE('',#44,#261);
#261 = DEFINITIONAL_REPRESENTATION('',(#262),#266);
#262 = LINE('',#263,#264);
#263 = CARTESIAN_POINT('',(14.,0.));
#264 = VECTOR('',#265,1.);
#265 = DIRECTION('',(0.,1.));
#266 = ( GEOMETRIC_REPRESENTATION_CONTEXT(2) 
PARAMETRIC_REPRESENTATION_CONTEXT() REPRESENTATION_CONTEXT('2D SPACE',''
  ) );
#267 = PCURVE('',#182,#268);
#268 = DEFINITIONAL_REPRESENTATION('',(#269),#273);
#269 = LINE('',#270,#271);
#270 = CARTESIAN_POINT('',(0.,0.));
#271 = VECTOR('',#272,1.);
#272 = DIRECTION('',(1.,0.));
#273 = ( GEOMETRIC_REPRESENTATION_CONTEXT(2) 
PARAMETRIC_REPRESENTATION_CONTEXT() REPRESENTATION_CONTEXT('2D SPACE',''
  ) );
#274 = ORIENTED_EDGE('',*,*,#275,.F.);
#275 = EDGE_CURVE('',#229,#253,#276,.T.);
#276 = SURFACE_CURVE('',#277,(#281,#288),.PCURVE_S1.);
#277 = LINE('',#278,#279);
#278 = CARTESIAN_POINT('',(9.,-8.,0.));
#279 = VECTOR('',#280,1.);
#280 = DIRECTION('',(0.,0.,1.));
#281 = PCURVE('',#44,#282);
#282 = DEFINITIONAL_REPRESENTATION('',(#283),#287);
#283 = LINE('',#284,#285);
#284 = CARTESIAN_POINT('',(0.,18.));
#285 = VECTOR('',#286,1.);
#286 = DIRECTION('',(1.,0.));
#287 = ( GEOMETRIC_REPRESENTATION_CONTEXT(2) 
PARAMETRIC_REPRESENTATION_CONTEXT() REPRESENTATION_CONTEXT('2D SPACE',''
  ) );
#288 = PCURVE('',#289,#294);
#289 = PLANE('',#290);
#290 = AXIS2_PLACEMENT_3D('',#291,#292,#293);
#291 = CARTESIAN_POINT('',(9.,-8.,0.));
#292 = DIRECTION('',(1.,0.,0.));
#293 = DIRECTION('',(0.,0.,1.));
#294 = DEFINITIONAL_REPRESENTATION('',(#295),#299);
#295 = LINE('',#296,#297);
#296 = CARTESIAN_POINT('',(0.,0.));
#297 = VECTOR('',#298,1.);
#298 = DIRECTION('',(1.,0.));
#299 = ( GEOMETRIC_REPRESENTATION_CONTEXT(2) 
PARAMETRIC_REPRESENTATION_CONTEXT() REPRESENTATION_CONTEXT('2D SPACE',''
  ) );
#300 = ADVANCED_FACE('',(#301,#349),#72,.F.);
#301 = FACE_BOUND('',#302,.F.);
#302 = EDGE_LOOP('',(#303,#304,#327,#348));
#303 = ORIENTED_EDGE('',*,*,#228,.T.);
#304 = ORIENTED_EDGE('',*,*,#305,.F.);
#305 = EDGE_CURVE('',#306,#229,#308,.T.);
#306 = VERTEX_POINT('',#307);
#307 = CARTESIAN_POINT('',(9.,22.,0.));
#308 = SURFACE_CURVE('',#309,(#313,#320),.PCURVE_S1.);
#309 = LINE('',#310,#311);
#310 = CARTESIAN_POINT('',(9.,22.,0.));
#311 = VECTOR('',#312,1.);
#312 = DIRECTION('',(0.,-1.,0.));
#313 = PCURVE('',#72,#314);
#314 = DEFINITIONAL_REPRESENTATION('',(#315),#319);
#315 = LINE('',#316,#317);
#316 = CARTESIAN_POINT('',(18.,30.));
#317 = VECTOR('',#318,1.);
#318 = DIRECTION('',(0.,-1.));
#319 = ( GEOMETRIC_REPRESENTATION_CONTEXT(2) 
PARAMETRIC_REPRESENTATION_CONTEXT() REPRESENTATION_CONTEXT('2D SPACE',''
  ) );
#320 = PCURVE('',#289,#321);
#321 = DEFINITIONAL_REPRESENTATION('',(#322),#326);
#322 = LINE('',#323,#324);
#323 = CARTESIAN_POINT('',(0.,-30.));
#324 = VECTOR('',#325,1.);
#325 = DIRECTION('',(0.,1.));
#326 = ( GEOMETRIC_REPRESENTATION_CONTEXT(2) 
PARAMETRIC_REPRESENTATION_CONTEXT() REPRESENTATION_CONTEXT('2D SPACE',''
  ) );
#327 = ORIENTED_EDGE('',*,*,#328,.F.);
#328 = EDGE_CURVE('',#57,#306,#329,.T.);
#329 = SURFACE_CURVE('',#330,(#334,#341),.PCURVE_S1.);
#330 = LINE('',#331,#332);
#331 = CARTESIAN_POINT('',(-9.,22.,0.));
#332 = VECTOR('',#333,1.);
#333 = DIRECTION('',(1.,0.,0.));
#334 = PCURVE('',#72,#335);
#335 = DEFINITIONAL_REPRESENTATION('',(#336),#340);
#336 = LINE('',#337,#338);
#337 = CARTESIAN_POINT('',(0.,30.));
#338 = VECTOR('',#339,1.);
#339 = DIRECTION('',(1.,0.));
#340 = ( GEOMETRIC_REPRESENTATION_CONTEXT(2) 
PARAMETRIC_REPRESENTATION_CONTEXT() REPRESENTATION_CONTEXT('2D SPACE',''
  ) );
#341 = PCURVE('',#100,#342);
#342 = DEFINITIONAL_REPRESENTATION('',(#343),#347);
#343 = LINE('',#344,#345);
#344 = CARTESIAN_POINT('',(0.,0.));
#345 = VECTOR('',#346,1.);
#346 = DIRECTION('',(0.,1.));
#347 = ( GEOMETRIC_REPRESENTATION_CONTEXT(2) 
PARAMETRIC_REPRESENTATION_CONTEXT() REPRESENTATION_CONTEXT('2D SPACE',''
  ) );
#348 = ORIENTED_EDGE('',*,*,#56,.T.);
#349 = FACE_BOUND('',#350,.F.);
#350 = EDGE_LOOP('',(#351));
#351 = ORIENTED_EDGE('',*,*,#352,.F.);
#352 = EDGE_CURVE('',#353,#353,#355,.T.);
#353 = VERTEX_POINT('',#354);
#354 = CARTESIAN_POINT('',(2.15,15.,0.));
#355 = SURFACE_CURVE('',#356,(#361,#368),.PCURVE_S1.);
#356 = CIRCLE('',#357,2.15);
#357 = AXIS2_PLACEMENT_3D('',#358,#359,#360);
#358 = CARTESIAN_POINT('',(0.,15.,0.));
#359 = DIRECTION('',(0.,0.,1.));
#360 = DIRECTION('',(1.,0.,-0.));
#361 = PCURVE('',#72,#362);
#362 = DEFINITIONAL_REPRESENTATION('',(#363),#367);
#363 = CIRCLE('',#364,2.15);
#364 = AXIS2_PLACEMENT_2D('',#365,#366);
#365 = CARTESIAN_POINT('',(9.,23.));
#366 = DIRECTION('',(1.,0.));
#367 = ( GEOMETRIC_REPRESENTATION_CONTEXT(2) 
PARAMETRIC_REPRESENTATION_CONTEXT() REPRESENTATION_CONTEXT('2D SPACE',''
  ) );
#368 = PCURVE('',#369,#374);
#369 = CYLINDRICAL_SURFACE('',#370,2.15);
#370 = AXIS2_PLACEMENT_3D('',#371,#372,#373);
#371 = CARTESIAN_POINT('',(0.,15.,6.));
#372 = DIRECTION('',(0.,0.,1.));
#373 = DIRECTION('',(1.,0.,0.));
#374 = DEFINITIONAL_REPRESENTATION('',(#375),#379);
#375 = LINE('',#376,#377);
#376 = CARTESIAN_POINT('',(0.,-6.));
#377 = VECTOR('',#378,1.);
#378 = DIRECTION('',(1.,0.));
#379 = ( GEOMETRIC_REPRESENTATION_CONTEXT(2) 
PARAMETRIC_REPRESENTATION_CONTEXT() REPRESENTATION_CONTEXT('2D SPACE',''
  ) );
#380 = ADVANCED_FACE('',(#381),#100,.T.);
#381 = FACE_BOUND('',#382,.T.);
#382 = EDGE_LOOP('',(#383,#384,#385,#408));
#383 = ORIENTED_EDGE('',*,*,#328,.F.);
#384 = ORIENTED_EDGE('',*,*,#84,.T.);
#385 = ORIENTED_EDGE('',*,*,#386,.T.);
#386 = EDGE_CURVE('',#85,#387,#389,.T.);
#387 = VERTEX_POINT('',#388);
#388 = CARTESIAN_POINT('',(9.,22.,5.));
#389 = SURFACE_CURVE('',#390,(#394,#401),.PCURVE_S1.);
#390 = LINE('',#391,#392);
#391 = CARTESIAN_POINT('',(-9.,22.,5.));
#392 = VECTOR('',#393,1.);
#393 = DIRECTION('',(1.,0.,0.));
#394 = PCURVE('',#100,#395);
#395 = DEFINITIONAL_REPRESENTATION('',(#396),#400);
#396 = LINE('',#397,#398);
#397 = CARTESIAN_POINT('',(5.,0.));
#398 = VECTOR('',#399,1.);
#399 = DIRECTION('',(0.,1.));
#400 = ( GEOMETRIC_REPRESENTATION_CONTEXT(2) 
PARAMETRIC_REPRESENTATION_CONTEXT() REPRESENTATION_CONTEXT('2D SPACE',''
  ) );
#401 = PCURVE('',#128,#402);
#402 = DEFINITIONAL_REPRESENTATION('',(#403),#407);
#403 = LINE('',#404,#405);
#404 = CARTESIAN_POINT('',(0.,14.));
#405 = VECTOR('',#406,1.);
#406 = DIRECTION('',(1.,0.));
#407 = ( GEOMETRIC_REPRESENTATION_CONTEXT(2) 
PARAMETRIC_REPRESENTATION_CONTEXT() REPRESENTATION_CONTEXT('2D SPACE',''
  ) );
#408 = ORIENTED_EDGE('',*,*,#409,.F.);
#409 = EDGE_CURVE('',#306,#387,#410,.T.);
#410 = SURFACE_CURVE('',#411,(#415,#422),.PCURVE_S1.);
#411 = LINE('',#412,#413);
#412 = CARTESIAN_POINT('',(9.,22.,0.));
#413 = VECTOR('',#414,1.);
#414 = DIRECTION('',(0.,0.,1.));
#415 = PCURVE('',#100,#416);
#416 = DEFINITIONAL_REPRESENTATION('',(#417),#421);
#417 = LINE('',#418,#419);
#418 = CARTESIAN_POINT('',(0.,18.));
#419 = VECTOR('',#420,1.);
#420 = DIRECTION('',(1.,0.));
#421 = ( GEOMETRIC_REPRESENTATION_CONTEXT(2) 
PARAMETRIC_REPRESENTATION_CONTEXT() REPRESENTATION_CONTEXT('2D SPACE',''
  ) );
#422 = PCURVE('',#289,#423);
#423 = DEFINITIONAL_REPRESENTATION('',(#424),#428);
#424 = LINE('',#425,#426);
#425 = CARTESIAN_POINT('',(0.,-30.));
#426 = VECTOR('',#427,1.);
#427 = DIRECTION('',(1.,0.));
#428 = ( GEOMETRIC_REPRESENTATION_CONTEXT(2) 
PARAMETRIC_REPRESENTATION_CONTEXT() REPRESENTATION_CONTEXT('2D SPACE',''
  ) );
#429 = ADVANCED_FACE('',(#430,#478),#128,.T.);
#430 = FACE_BOUND('',#431,.T.);
#431 = EDGE_LOOP('',(#432,#433,#456,#477));
#432 = ORIENTED_EDGE('',*,*,#112,.F.);
#433 = ORIENTED_EDGE('',*,*,#434,.T.);
#434 = EDGE_CURVE('',#113,#435,#437,.T.);
#435 = VERTEX_POINT('',#436);
#436 = CARTESIAN_POINT('',(9.,8.,5.));
#437 = SURFACE_CURVE('',#438,(#442,#449),.PCURVE_S1.);
#438 = LINE('',#439,#440);
#439 = CARTESIAN_POINT('',(-9.,8.,5.));
#440 = VECTOR('',#441,1.);
#441 = DIRECTION('',(1.,0.,0.));
#442 = PCURVE('',#128,#443);
#443 = DEFINITIONAL_REPRESENTATION('',(#444),#448);
#444 = LINE('',#445,#446);
#445 = CARTESIAN_POINT('',(0.,0.));
#446 = VECTOR('',#447,1.);
#447 = DIRECTION('',(1.,0.));
#448 = ( GEOMETRIC_REPRESENTATION_CONTEXT(2) 
PARAMETRIC_REPRESENTATION_CONTEXT() REPRESENTATION_CONTEXT('2D SPACE',''
  ) );
#449 = PCURVE('',#156,#450);
#450 = DEFINITIONAL_REPRESENTATION('',(#451),#455);
#451 = LINE('',#452,#453);
#452 = CARTESIAN_POINT('',(5.,0.));
#453 = VECTOR('',#454,1.);
#454 = DIRECTION('',(0.,1.));
#455 = ( GEOMETRIC_REPRESENTATION_CONTEXT(2) 
PARAMETRIC_REPRESENTATION_CONTEXT() REPRESENTATION_CONTEXT('2D SPACE',''
  ) );
#456 = ORIENTED_EDGE('',*,*,#457,.T.);
#457 = EDGE_CURVE('',#435,#387,#458,.T.);
#458 = SURFACE_CURVE('',#459,(#463,#470),.PCURVE_S1.);
#459 = LINE('',#460,#461);
#460 = CARTESIAN_POINT('',(9.,8.,5.));
#461 = VECTOR('',#462,1.);
#462 = DIRECTION('',(0.,1.,0.));
#463 = PCURVE('',#128,#464);
#464 = DEFINITIONAL_REPRESENTATION('',(#465),#469);
#465 = LINE('',#466,#467);
#466 = CARTESIAN_POINT('',(18.,0.));
#467 = VECTOR('',#468,1.);
#468 = DIRECTION('',(0.,1.));
#469 = ( GEOMETRIC_REPRESENTATION_CONTEXT(2) 
PARAMETRIC_REPRESENTATION_CONTEXT() REPRESENTATION_CONTEXT('2D SPACE',''
  ) );
#470 = PCURVE('',#289,#471);
#471 = DEFINITIONAL_REPRESENTATION('',(#472),#476);
#472 = LINE('',#473,#474);
#473 = CARTESIAN_POINT('',(5.,-16.));
#474 = VECTOR('',#475,1.);
#475 = DIRECTION('',(0.,-1.));
#476 = ( GEOMETRIC_REPRESENTATION_CONTEXT(2) 
PARAMETRIC_REPRESENTATION_CONTEXT() REPRESENTATION_CONTEXT('2D SPACE',''
  ) );
#477 = ORIENTED_EDGE('',*,*,#386,.F.);
#478 = FACE_BOUND('',#479,.T.);
#479 = EDGE_LOOP('',(#480));
#480 = ORIENTED_EDGE('',*,*,#481,.F.);
#481 = EDGE_CURVE('',#482,#482,#484,.T.);
#482 = VERTEX_POINT('',#483);
#483 = CARTESIAN_POINT('',(2.15,15.,5.));
#484 = SURFACE_CURVE('',#485,(#490,#497),.PCURVE_S1.);
#485 = CIRCLE('',#486,2.15);
#486 = AXIS2_PLACEMENT_3D('',#487,#488,#489);
#487 = CARTESIAN_POINT('',(0.,15.,5.));
#488 = DIRECTION('',(0.,0.,1.));
#489 = DIRECTION('',(1.,0.,-0.));
#490 = PCURVE('',#128,#491);
#491 = DEFINITIONAL_REPRESENTATION('',(#492),#496);
#492 = CIRCLE('',#493,2.15);
#493 = AXIS2_PLACEMENT_2D('',#494,#495);
#494 = CARTESIAN_POINT('',(9.,7.));
#495 = DIRECTION('',(1.,0.));
#496 = ( GEOMETRIC_REPRESENTATION_CONTEXT(2) 
PARAMETRIC_REPRESENTATION_CONTEXT() REPRESENTATION_CONTEXT('2D SPACE',''
  ) );
#497 = PCURVE('',#369,#498);
#498 = DEFINITIONAL_REPRESENTATION('',(#499),#503);
#499 = LINE('',#500,#501);
#500 = CARTESIAN_POINT('',(0.,-1.));
#501 = VECTOR('',#502,1.);
#502 = DIRECTION('',(1.,0.));
#503 = ( GEOMETRIC_REPRESENTATION_CONTEXT(2) 
PARAMETRIC_REPRESENTATION_CONTEXT() REPRESENTATION_CONTEXT('2D SPACE',''
  ) );
#504 = ADVANCED_FACE('',(#505),#156,.T.);
#505 = FACE_BOUND('',#506,.T.);
#506 = EDGE_LOOP('',(#507,#508,#509,#532));
#507 = ORIENTED_EDGE('',*,*,#434,.F.);
#508 = ORIENTED_EDGE('',*,*,#140,.T.);
#509 = ORIENTED_EDGE('',*,*,#510,.T.);
#510 = EDGE_CURVE('',#141,#511,#513,.T.);
#511 = VERTEX_POINT('',#512);
#512 = CARTESIAN_POINT('',(9.,8.,14.));
#513 = SURFACE_CURVE('',#514,(#518,#525),.PCURVE_S1.);
#514 = LINE('',#515,#516);
#515 = CARTESIAN_POINT('',(-9.,8.,14.));
#516 = VECTOR('',#517,1.);
#517 = DIRECTION('',(1.,0.,0.));
#518 = PCURVE('',#156,#519);
#519 = DEFINITIONAL_REPRESENTATION('',(#520),#524);
#520 = LINE('',#521,#522);
#521 = CARTESIAN_POINT('',(14.,0.));
#522 = VECTOR('',#523,1.);
#523 = DIRECTION('',(0.,1.));
#524 = ( GEOMETRIC_REPRESENTATION_CONTEXT(2) 
PARAMETRIC_REPRESENTATION_CONTEXT() REPRESENTATION_CONTEXT('2D SPACE',''
  ) );
#525 = PCURVE('',#182,#526);
#526 = DEFINITIONAL_REPRESENTATION('',(#527),#531);
#527 = LINE('',#528,#529);
#528 = CARTESIAN_POINT('',(0.,16.));
#529 = VECTOR('',#530,1.);
#530 = DIRECTION('',(1.,0.));
#531 = ( GEOMETRIC_REPRESENTATION_CONTEXT(2) 
PARAMETRIC_REPRESENTATION_CONTEXT() REPRESENTATION_CONTEXT('2D SPACE',''
  ) );
#532 = ORIENTED_EDGE('',*,*,#533,.F.);
#533 = EDGE_CURVE('',#435,#511,#534,.T.);
#534 = SURFACE_CURVE('',#535,(#539,#546),.PCURVE_S1.);
#535 = LINE('',#536,#537);
#536 = CARTESIAN_POINT('',(9.,8.,0.));
#537 = VECTOR('',#538,1.);
#538 = DIRECTION('',(0.,0.,1.));
#539 = PCURVE('',#156,#540);
#540 = DEFINITIONAL_REPRESENTATION('',(#541),#545);
#541 = LINE('',#542,#543);
#542 = CARTESIAN_POINT('',(0.,18.));
#543 = VECTOR('',#544,1.);
#544 = DIRECTION('',(1.,0.));
#545 = ( GEOMETRIC_REPRESENTATION_CONTEXT(2) 
PARAMETRIC_REPRESENTATION_CONTEXT() REPRESENTATION_CONTEXT('2D SPACE',''
  ) );
#546 = PCURVE('',#289,#547);
#547 = DEFINITIONAL_REPRESENTATION('',(#548),#552);
#548 = LINE('',#549,#550);
#549 = CARTESIAN_POINT('',(0.,-16.));
#550 = VECTOR('',#551,1.);
#551 = DIRECTION('',(1.,0.));
#552 = ( GEOMETRIC_REPRESENTATION_CONTEXT(2) 
PARAMETRIC_REPRESENTATION_CONTEXT() REPRESENTATION_CONTEXT('2D SPACE',''
  ) );
#553 = ADVANCED_FACE('',(#554,#580),#182,.T.);
#554 = FACE_BOUND('',#555,.T.);
#555 = EDGE_LOOP('',(#556,#557,#558,#579));
#556 = ORIENTED_EDGE('',*,*,#168,.F.);
#557 = ORIENTED_EDGE('',*,*,#252,.T.);
#558 = ORIENTED_EDGE('',*,*,#559,.T.);
#559 = EDGE_CURVE('',#253,#511,#560,.T.);
#560 = SURFACE_CURVE('',#561,(#565,#572),.PCURVE_S1.);
#561 = LINE('',#562,#563);
#562 = CARTESIAN_POINT('',(9.,-8.,14.));
#563 = VECTOR('',#564,1.);
#564 = DIRECTION('',(0.,1.,0.));
#565 = PCURVE('',#182,#566);
#566 = DEFINITIONAL_REPRESENTATION('',(#567),#571);
#567 = LINE('',#568,#569);
#568 = CARTESIAN_POINT('',(18.,0.));
#569 = VECTOR('',#570,1.);
#570 = DIRECTION('',(0.,1.));
#571 = ( GEOMETRIC_REPRESENTATION_CONTEXT(2) 
PARAMETRIC_REPRESENTATION_CONTEXT() REPRESENTATION_CONTEXT('2D SPACE',''
  ) );
#572 = PCURVE('',#289,#573);
#573 = DEFINITIONAL_REPRESENTATION('',(#574),#578);
#574 = LINE('',#575,#576);
#575 = CARTESIAN_POINT('',(14.,0.));
#576 = VECTOR('',#577,1.);
#577 = DIRECTION('',(0.,-1.));
#578 = ( GEOMETRIC_REPRESENTATION_CONTEXT(2) 
PARAMETRIC_REPRESENTATION_CONTEXT() REPRESENTATION_CONTEXT('2D SPACE',''
  ) );
#579 = ORIENTED_EDGE('',*,*,#510,.F.);
#580 = FACE_BOUND('',#581,.T.);
#581 = EDGE_LOOP('',(#582));
#582 = ORIENTED_EDGE('',*,*,#583,.F.);
#583 = EDGE_CURVE('',#584,#584,#586,.T.);
#584 = VERTEX_POINT('',#585);
#585 = CARTESIAN_POINT('',(1.4,0.,14.));
#586 = SURFACE_CURVE('',#587,(#592,#599),.PCURVE_S1.);
#587 = CIRCLE('',#588,1.4);
#588 = AXIS2_PLACEMENT_3D('',#589,#590,#591);
#589 = CARTESIAN_POINT('',(0.,0.,14.));
#590 = DIRECTION('',(0.,0.,1.));
#591 = DIRECTION('',(1.,0.,0.));
#592 = PCURVE('',#182,#593);
#593 = DEFINITIONAL_REPRESENTATION('',(#594),#598);
#594 = CIRCLE('',#595,1.4);
#595 = AXIS2_PLACEMENT_2D('',#596,#597);
#596 = CARTESIAN_POINT('',(9.,8.));
#597 = DIRECTION('',(1.,0.));
#598 = ( GEOMETRIC_REPRESENTATION_CONTEXT(2) 
PARAMETRIC_REPRESENTATION_CONTEXT() REPRESENTATION_CONTEXT('2D SPACE',''
  ) );
#599 = PCURVE('',#600,#605);
#600 = CYLINDRICAL_SURFACE('',#601,1.4);
#601 = AXIS2_PLACEMENT_3D('',#602,#603,#604);
#602 = CARTESIAN_POINT('',(0.,0.,14.));
#603 = DIRECTION('',(0.,0.,1.));
#604 = DIRECTION('',(1.,0.,0.));
#605 = DEFINITIONAL_REPRESENTATION('',(#606),#610);
#606 = LINE('',#607,#608);
#607 = CARTESIAN_POINT('',(0.,0.));
#608 = VECTOR('',#609,1.);
#609 = DIRECTION('',(1.,0.));
#610 = ( GEOMETRIC_REPRESENTATION_CONTEXT(2) 
PARAMETRIC_REPRESENTATION_CONTEXT() REPRESENTATION_CONTEXT('2D SPACE',''
  ) );
#611 = ADVANCED_FACE('',(#612,#661),#213,.F.);
#612 = FACE_BOUND('',#613,.T.);
#613 = EDGE_LOOP('',(#614,#615,#638,#660));
#614 = ORIENTED_EDGE('',*,*,#196,.F.);
#615 = ORIENTED_EDGE('',*,*,#616,.T.);
#616 = EDGE_CURVE('',#197,#617,#619,.T.);
#617 = VERTEX_POINT('',#618);
#618 = CARTESIAN_POINT('',(9.,2.65,8.));
#619 = SEAM_CURVE('',#620,(#624,#631),.PCURVE_S1.);
#620 = LINE('',#621,#622);
#621 = CARTESIAN_POINT('',(-9.,2.65,8.));
#622 = VECTOR('',#623,1.);
#623 = DIRECTION('',(1.,0.,0.));
#624 = PCURVE('',#213,#625);
#625 = DEFINITIONAL_REPRESENTATION('',(#626),#630);
#626 = LINE('',#627,#628);
#627 = CARTESIAN_POINT('',(-6.28318530718,0.));
#628 = VECTOR('',#629,1.);
#629 = DIRECTION('',(-0.,-1.));
#630 = ( GEOMETRIC_REPRESENTATION_CONTEXT(2) 
PARAMETRIC_REPRESENTATION_CONTEXT() REPRESENTATION_CONTEXT('2D SPACE',''
  ) );
#631 = PCURVE('',#213,#632);
#632 = DEFINITIONAL_REPRESENTATION('',(#633),#637);
#633 = LINE('',#634,#635);
#634 = CARTESIAN_POINT('',(-0.,0.));
#635 = VECTOR('',#636,1.);
#636 = DIRECTION('',(-0.,-1.));
#637 = ( GEOMETRIC_REPRESENTATION_CONTEXT(2) 
PARAMETRIC_REPRESENTATION_CONTEXT() REPRESENTATION_CONTEXT('2D SPACE',''
  ) );
#638 = ORIENTED_EDGE('',*,*,#639,.T.);
#639 = EDGE_CURVE('',#617,#617,#640,.T.);
#640 = SURFACE_CURVE('',#641,(#646,#653),.PCURVE_S1.);
#641 = CIRCLE('',#642,2.65);
#642 = AXIS2_PLACEMENT_3D('',#643,#644,#645);
#643 = CARTESIAN_POINT('',(9.,0.,8.));
#644 = DIRECTION('',(1.,0.,0.));
#645 = DIRECTION('',(0.,1.,0.));
#646 = PCURVE('',#213,#647);
#647 = DEFINITIONAL_REPRESENTATION('',(#648),#652);
#648 = LINE('',#649,#650);
#649 = CARTESIAN_POINT('',(-0.,-18.));
#650 = VECTOR('',#651,1.);
#651 = DIRECTION('',(-1.,0.));
#652 = ( GEOMETRIC_REPRESENTATION_CONTEXT(2) 
PARAMETRIC_REPRESENTATION_CONTEXT() REPRESENTATION_CONTEXT('2D SPACE',''
  ) );
#653 = PCURVE('',#289,#654);
#654 = DEFINITIONAL_REPRESENTATION('',(#655),#659);
#655 = CIRCLE('',#656,2.65);
#656 = AXIS2_PLACEMENT_2D('',#657,#658);
#657 = CARTESIAN_POINT('',(8.,-8.));
#658 = DIRECTION('',(0.,-1.));
#659 = ( GEOMETRIC_REPRESENTATION_CONTEXT(2) 
PARAMETRIC_REPRESENTATION_CONTEXT() REPRESENTATION_CONTEXT('2D SPACE',''
  ) );
#660 = ORIENTED_EDGE('',*,*,#616,.F.);
#661 = FACE_BOUND('',#662,.T.);
#662 = EDGE_LOOP('',(#663));
#663 = ORIENTED_EDGE('',*,*,#664,.T.);
#664 = EDGE_CURVE('',#665,#665,#667,.T.);
#665 = VERTEX_POINT('',#666);
#666 = CARTESIAN_POINT('',(1.4,0.,10.65));
#667 = SURFACE_CURVE('',#668,(#771,#877),.PCURVE_S1.);
#668 = B_SPLINE_CURVE_WITH_KNOTS('',6,(#669,#670,#671,#672,#673,#674,
    #675,#676,#677,#678,#679,#680,#681,#682,#683,#684,#685,#686,#687,
    #688,#689,#690,#691,#692,#693,#694,#695,#696,#697,#698,#699,#700,
    #701,#702,#703,#704,#705,#706,#707,#708,#709,#710,#711,#712,#713,
    #714,#715,#716,#717,#718,#719,#720,#721,#722,#723,#724,#725,#726,
    #727,#728,#729,#730,#731,#732,#733,#734,#735,#736,#737,#738,#739,
    #740,#741,#742,#743,#744,#745,#746,#747,#748,#749,#750,#751,#752,
    #753,#754,#755,#756,#757,#758,#759,#760,#761,#762,#763,#764,#765,
    #766,#767,#768,#769,#770),.UNSPECIFIED.,.T.,.F.,(7,5,5,5,5,5,5,5,5,5
    ,5,5,5,5,5,5,5,5,5,5,7),(0.,6.434291770067E-02,0.108778645591,
    0.156345548574,0.201224186376,0.249594663427,0.298206442129,
    0.342881179262,0.408643235291,0.459300506328,0.499275897422,
    0.563813360216,0.608382676923,0.656093704845,0.701108362265,
    0.749625440814,0.797492274317,0.843193748763,0.909155552074,
    0.935429592434,1.),.UNSPECIFIED.);
#669 = CARTESIAN_POINT('',(1.4,0.,10.65));
#670 = CARTESIAN_POINT('',(1.4,0.108499964263,10.65));
#671 = CARTESIAN_POINT('',(1.389909508266,0.21641623855,10.644669049526)
  );
#672 = CARTESIAN_POINT('',(1.36993208059,0.322124056165,10.634115530428)
  );
#673 = CARTESIAN_POINT('',(1.340731314093,0.424037847166,10.618894959186
    ));
#674 = CARTESIAN_POINT('',(1.303425522229,0.52070696679,10.599992399245)
  );
#675 = CARTESIAN_POINT('',(1.229453257677,0.673230834959,10.56385649336)
  );
#676 = CARTESIAN_POINT('',(1.196035578071,0.732716503188,10.547855228821
    ));
#677 = CARTESIAN_POINT('',(1.159736125969,0.789306552975,10.530906709912
    ));
#678 = CARTESIAN_POINT('',(1.120846249552,0.842948625592,10.513298464369
    ));
#679 = CARTESIAN_POINT('',(1.079632850713,0.893610071276,10.495307782611
    ));
#680 = CARTESIAN_POINT('',(0.989998712087,0.992297079374,10.45780912783)
  );
#681 = CARTESIAN_POINT('',(0.941244940629,1.039918320316,10.43827110265)
  );
#682 = CARTESIAN_POINT('',(0.890333567112,1.084152742865,10.41888653401)
  );
#683 = CARTESIAN_POINT('',(0.837481049129,1.125015108151,10.399941914578
    ));
#684 = CARTESIAN_POINT('',(0.782868966588,1.162515672121,10.381705565667
    ));
#685 = CARTESIAN_POINT('',(0.673601477668,1.228866284794,10.348124982296
    ));
#686 = CARTESIAN_POINT('',(0.619109494326,1.258093457133,10.332671421046
    ));
#687 = CARTESIAN_POINT('',(0.563338700564,1.284307824689,10.318290472199
    ));
#688 = CARTESIAN_POINT('',(0.506442884829,1.3074858003,10.305188272456)
  );
#689 = CARTESIAN_POINT('',(0.448562362016,1.327603810686,10.293547174866
    ));
#690 = CARTESIAN_POINT('',(0.326517210153,1.362986142931,10.272712570882
    ));
#691 = CARTESIAN_POINT('',(0.262212573205,1.377751361549,10.263779472702
    ));
#692 = CARTESIAN_POINT('',(0.197166336066,1.388863663771,10.256929872479
    ));
#693 = CARTESIAN_POINT('',(0.13162512244,1.396285813508,10.252310721433)
  );
#694 = CARTESIAN_POINT('',(6.58267185716E-02,1.4,10.25));
#695 = CARTESIAN_POINT('',(-6.615510267852E-02,1.4,10.25));
#696 = CARTESIAN_POINT('',(-0.132281202913,1.396248662751,
    10.252333828193));
#697 = CARTESIAN_POINT('',(-0.198146256654,1.388752394401,
    10.256999123533));
#698 = CARTESIAN_POINT('',(-0.263509100784,1.377529313381,
    10.263916344096));
#699 = CARTESIAN_POINT('',(-0.328119523004,1.362617312532,
    10.272935679594));
#700 = CARTESIAN_POINT('',(-0.450166307442,1.327048084999,
    10.293868792166));
#701 = CARTESIAN_POINT('',(-0.507761840891,1.306953483398,
    10.305489543892));
#702 = CARTESIAN_POINT('',(-0.564378982403,1.283827205687,
    10.318555025535));
#703 = CARTESIAN_POINT('',(-0.619879398479,1.25769246275,10.332885118037
    ));
#704 = CARTESIAN_POINT('',(-0.674111501535,1.22857243331,10.348276418978
    ));
#705 = CARTESIAN_POINT('',(-0.804629346887,1.149278662812,
    10.388400908609));
#706 = CARTESIAN_POINT('',(-0.879273369072,1.095635881139,
    10.414124219105));
#707 = CARTESIAN_POINT('',(-0.950439564007,1.035570365746,
    10.441015656888));
#708 = CARTESIAN_POINT('',(-1.017624315388,0.969036418053,
    10.468350707427));
#709 = CARTESIAN_POINT('',(-1.080184573217,0.89598758572,10.495335729749
    ));
#710 = CARTESIAN_POINT('',(-1.181296591651,0.755135973745,
    10.540948612965));
#711 = CARTESIAN_POINT('',(-1.222135973474,0.689879329021,
    10.560105749046));
#712 = CARTESIAN_POINT('',(-1.259292758019,0.620812202401,
    10.578111480017));
#713 = CARTESIAN_POINT('',(-1.292262227694,0.548145889037,
    10.594499992912));
#714 = CARTESIAN_POINT('',(-1.320551168503,0.472146120702,10.6088237685)
  );
#715 = CARTESIAN_POINT('',(-1.361911626172,0.33078270893,10.630030030645
    ));
#716 = CARTESIAN_POINT('',(-1.376925268813,0.266585321415,
    10.637840414066));
#717 = CARTESIAN_POINT('',(-1.388400180918,0.200959122215,
    10.643871297878));
#718 = CARTESIAN_POINT('',(-1.396128372908,0.134346876785,
    10.647954890391));
#719 = CARTESIAN_POINT('',(-1.4,6.720636847625E-02,10.65));
#720 = CARTESIAN_POINT('',(-1.4,-0.108499964263,10.65));
#721 = CARTESIAN_POINT('',(-1.389909508266,-0.21641623855,
    10.644669049526));
#722 = CARTESIAN_POINT('',(-1.369932080591,-0.322124056165,
    10.634115530428));
#723 = CARTESIAN_POINT('',(-1.340731314093,-0.424037847167,
    10.618894959186));
#724 = CARTESIAN_POINT('',(-1.303425522229,-0.52070696679,
    10.599992399245));
#725 = CARTESIAN_POINT('',(-1.229453776711,-0.67322976476,
    10.563856746911));
#726 = CARTESIAN_POINT('',(-1.196036085438,-0.732715770962,
    10.547855467469));
#727 = CARTESIAN_POINT('',(-1.159736141219,-0.789306730234,
    10.530906700492));
#728 = CARTESIAN_POINT('',(-1.120845586048,-0.842949588959,10.5132981539
    ));
#729 = CARTESIAN_POINT('',(-1.079631890505,-0.893611128463,
    10.495307380905));
#730 = CARTESIAN_POINT('',(-0.98999864941,-0.992297148381,
    10.457809101609));
#731 = CARTESIAN_POINT('',(-0.94124484443,-1.039918409865,
    10.438271064717));
#732 = CARTESIAN_POINT('',(-0.890333467175,-1.084152822388,
    10.418886497509));
#733 = CARTESIAN_POINT('',(-0.837480970553,-1.125015162226,
    10.399941888297));
#734 = CARTESIAN_POINT('',(-0.78286892545,-1.162515697101,
    10.381705553024));
#735 = CARTESIAN_POINT('',(-0.673601469386,-1.228866289823,
    10.348124979751));
#736 = CARTESIAN_POINT('',(-0.619109483219,-1.258093462671,
    10.332671418039));
#737 = CARTESIAN_POINT('',(-0.563338690769,-1.284307828668,
    10.318290469936));
#738 = CARTESIAN_POINT('',(-0.506442878671,-1.307485802337,
    10.305188271275));
#739 = CARTESIAN_POINT('',(-0.448562359786,-1.327603811332,
    10.293547174486));
#740 = CARTESIAN_POINT('',(-0.326517214249,-1.362986141743,
    10.272712571581));
#741 = CARTESIAN_POINT('',(-0.262212576139,-1.37775136119,
    10.263779472938));
#742 = CARTESIAN_POINT('',(-0.197166335337,-1.388863664268,
    10.256929872184));
#743 = CARTESIAN_POINT('',(-0.1316251182,-1.396285814054,10.252310721083
    ));
#744 = CARTESIAN_POINT('',(-6.582671363931E-02,-1.4,10.25));
#745 = CARTESIAN_POINT('',(6.494447802711E-02,-1.4,10.25));
#746 = CARTESIAN_POINT('',(0.129862380082,-1.396384707401,
    10.252249211147));
#747 = CARTESIAN_POINT('',(0.19453323748,-1.389159885145,10.256745513572
    ));
#748 = CARTESIAN_POINT('',(0.258728215522,-1.37834253521,10.263415007668
    ));
#749 = CARTESIAN_POINT('',(0.322210190824,-1.363968159481,10.27211823069
    ));
#750 = CARTESIAN_POINT('',(0.444429075369,-1.329036275871,10.29271780053
    ));
#751 = CARTESIAN_POINT('',(0.50324984649,-1.308788218992,10.304451951792
    ));
#752 = CARTESIAN_POINT('',(0.561062481971,-1.28538473571,10.317700332596
    ));
#753 = CARTESIAN_POINT('',(0.617720006837,-1.258850557014,
    10.332272738176));
#754 = CARTESIAN_POINT('',(0.673061186097,-1.229210533572,
    10.347953525425));
#755 = CARTESIAN_POINT('',(0.804629985552,-1.149278274802,10.38840110495
    ));
#756 = CARTESIAN_POINT('',(0.879273546474,-1.095635637299,
    10.414124313571));
#757 = CARTESIAN_POINT('',(0.950439229896,-1.035570571712,10.441015549)
  );
#758 = CARTESIAN_POINT('',(1.017623830797,-0.969036944535,10.46835049479
    ));
#759 = CARTESIAN_POINT('',(1.080184280284,-0.895987993784,
    10.495335597603));
#760 = CARTESIAN_POINT('',(1.160050386239,-0.784732477968,10.53136418669
    ));
#761 = CARTESIAN_POINT('',(1.181937563337,-0.752006045367,
    10.541434121445));
#762 = CARTESIAN_POINT('',(1.202900931435,-0.718257062446,
    10.551251761346));
#763 = CARTESIAN_POINT('',(1.222878079801,-0.683500563796,
    10.560757342123));
#764 = CARTESIAN_POINT('',(1.241804741045,-0.647754666438,
    10.569890563318));
#765 = CARTESIAN_POINT('',(1.303384313315,-0.520812947848,
    10.599971546478));
#766 = CARTESIAN_POINT('',(1.340705768251,-0.424127377978,10.61888162421
    ));
#767 = CARTESIAN_POINT('',(1.36991950726,-0.322192283783,10.634108884733
    ));
#768 = CARTESIAN_POINT('',(1.389905567292,-0.216460880273,
    10.644666969176));
#769 = CARTESIAN_POINT('',(1.4,-0.108521147128,10.65));
#770 = CARTESIAN_POINT('',(1.4,0.,10.65));
#771 = PCURVE('',#213,#772);
#772 = DEFINITIONAL_REPRESENTATION('',(#773),#876);
#773 = B_SPLINE_CURVE_WITH_KNOTS('',6,(#774,#775,#776,#777,#778,#779,
    #780,#781,#782,#783,#784,#785,#786,#787,#788,#789,#790,#791,#792,
    #793,#794,#795,#796,#797,#798,#799,#800,#801,#802,#803,#804,#805,
    #806,#807,#808,#809,#810,#811,#812,#813,#814,#815,#816,#817,#818,
    #819,#820,#821,#822,#823,#824,#825,#826,#827,#828,#829,#830,#831,
    #832,#833,#834,#835,#836,#837,#838,#839,#840,#841,#842,#843,#844,
    #845,#846,#847,#848,#849,#850,#851,#852,#853,#854,#855,#856,#857,
    #858,#859,#860,#861,#862,#863,#864,#865,#866,#867,#868,#869,#870,
    #871,#872,#873,#874,#875),.UNSPECIFIED.,.T.,.F.,(7,5,5,5,5,5,5,5,5,5
    ,5,5,5,5,5,5,5,5,5,5,7),(0.,6.434291770067E-02,0.108778645591,
    0.156345548574,0.201224186376,0.249594663427,0.298206442129,
    0.342881179262,0.408643235291,0.459300506328,0.499275897422,
    0.563813360216,0.608382676923,0.656093704845,0.701108362265,
    0.749625440814,0.797492274317,0.843193748763,0.909155552074,
    0.935429592434,1.),.UNSPECIFIED.);
#774 = CARTESIAN_POINT('',(-1.570796326795,-10.4));
#775 = CARTESIAN_POINT('',(-1.529852944054,-10.4));
#776 = CARTESIAN_POINT('',(-1.489129747024,-10.38990950826));
#777 = CARTESIAN_POINT('',(-1.449116824283,-10.36993208059));
#778 = CARTESIAN_POINT('',(-1.410293824655,-10.34073131409));
#779 = CARTESIAN_POINT('',(-1.373153030905,-10.30342552222));
#780 = CARTESIAN_POINT('',(-1.314003566201,-10.22945325767));
#781 = CARTESIAN_POINT('',(-1.290768777126,-10.19603557807));
#782 = CARTESIAN_POINT('',(-1.268489399297,-10.15973612596));
#783 = CARTESIAN_POINT('',(-1.247194136213,-10.12084624955));
#784 = CARTESIAN_POINT('',(-1.226911815166,-10.07963285071));
#785 = CARTESIAN_POINT('',(-1.187073632906,-9.989998712087));
#786 = CARTESIAN_POINT('',(-1.167656353929,-9.941244940629));
#787 = CARTESIAN_POINT('',(-1.149438636361,-9.890333567112));
#788 = CARTESIAN_POINT('',(-1.132446907773,-9.837481049129));
#789 = CARTESIAN_POINT('',(-1.116713202991,-9.782868966588));
#790 = CARTESIAN_POINT('',(-1.08865117694,-9.673601477668));
#791 = CARTESIAN_POINT('',(-1.076177256825,-9.619109494326));
#792 = CARTESIAN_POINT('',(-1.06489594858,-9.563338700564));
#793 = CARTESIAN_POINT('',(-1.054849627163,-9.506442884829));
#794 = CARTESIAN_POINT('',(-1.04607883774,-9.448562362016));
#795 = CARTESIAN_POINT('',(-1.030584192272,-9.326517210153));
#796 = CARTESIAN_POINT('',(-1.024072465416,-9.262212573205));
#797 = CARTESIAN_POINT('',(-1.019146667841,-9.197166336066));
#798 = CARTESIAN_POINT('',(-1.015847663276,-9.13162512244));
#799 = CARTESIAN_POINT('',(-1.014197008785,-9.065826718572));
#800 = CARTESIAN_POINT('',(-1.014197008785,-8.933844897321));
#801 = CARTESIAN_POINT('',(-1.015864172047,-8.867718797087));
#802 = CARTESIAN_POINT('',(-1.019196125872,-8.801853743346));
#803 = CARTESIAN_POINT('',(-1.024170894591,-8.736490899216));
#804 = CARTESIAN_POINT('',(-1.030746845055,-8.671880476996));
#805 = CARTESIAN_POINT('',(-1.046321126002,-8.549833692558));
#806 = CARTESIAN_POINT('',(-1.05508042422,-8.492238159109));
#807 = CARTESIAN_POINT('',(-1.065102947479,-8.435621017597));
#808 = CARTESIAN_POINT('',(-1.076348698345,-8.380120601521));
#809 = CARTESIAN_POINT('',(-1.088775919944,-8.325888498465));
#810 = CARTESIAN_POINT('',(-1.122310919345,-8.195370653113));
#811 = CARTESIAN_POINT('',(-1.144755406789,-8.120726630928));
#812 = CARTESIAN_POINT('',(-1.169575927975,-8.049560435993));
#813 = CARTESIAN_POINT('',(-1.196696253829,-7.982375684612));
#814 = CARTESIAN_POINT('',(-1.22605829747,-7.919815426783));
#815 = CARTESIAN_POINT('',(-1.281927380711,-7.818703408349));
#816 = CARTESIAN_POINT('',(-1.307581986571,-7.777864026526));
#817 = CARTESIAN_POINT('',(-1.334496283604,-7.740707241981));
#818 = CARTESIAN_POINT('',(-1.362581139197,-7.707737772306));
#819 = CARTESIAN_POINT('',(-1.391744732695,-7.679448831497));
#820 = CARTESIAN_POINT('',(-1.445686303793,-7.638088373828));
#821 = CARTESIAN_POINT('',(-1.470080939503,-7.623074731187));
#822 = CARTESIAN_POINT('',(-1.494933282602,-7.611599819082));
#823 = CARTESIAN_POINT('',(-1.520099425606,-7.603871627092));
#824 = CARTESIAN_POINT('',(-1.54543543303,-7.6));
#825 = CARTESIAN_POINT('',(-1.611739709536,-7.6));
#826 = CARTESIAN_POINT('',(-1.652462906566,-7.610090491734));
#827 = CARTESIAN_POINT('',(-1.692475829306,-7.630067919409));
#828 = CARTESIAN_POINT('',(-1.731298828935,-7.659268685907));
#829 = CARTESIAN_POINT('',(-1.768439622685,-7.696574477771));
#830 = CARTESIAN_POINT('',(-1.827588672361,-7.770546223289));
#831 = CARTESIAN_POINT('',(-1.850823586845,-7.803963914562));
#832 = CARTESIAN_POINT('',(-1.87310331926,-7.840263858781));
#833 = CARTESIAN_POINT('',(-1.894398898314,-7.879154413952));
#834 = CARTESIAN_POINT('',(-1.914681265192,-7.920368109495));
#835 = CARTESIAN_POINT('',(-1.954519048541,-8.01000135059));
#836 = CARTESIAN_POINT('',(-1.973936336338,-8.05875515557));
#837 = CARTESIAN_POINT('',(-1.992154050228,-8.109666532825));
#838 = CARTESIAN_POINT('',(-2.009145768507,-8.162519029447));
#839 = CARTESIAN_POINT('',(-2.024879461164,-8.21713107455));
#840 = CARTESIAN_POINT('',(-2.052941478776,-8.326398530614));
#841 = CARTESIAN_POINT('',(-2.065415399142,-8.380890516781));
#842 = CARTESIAN_POINT('',(-2.076696706737,-8.436661309231));
#843 = CARTESIAN_POINT('',(-2.086743027316,-8.493557121329));
#844 = CARTESIAN_POINT('',(-2.095513816132,-8.551437640214));
#845 = CARTESIAN_POINT('',(-2.111008460798,-8.673482785751));
#846 = CARTESIAN_POINT('',(-2.117520188011,-8.737787423861));
#847 = CARTESIAN_POINT('',(-2.122445985967,-8.802833664663));
#848 = CARTESIAN_POINT('',(-2.125744990559,-8.8683748818));
#849 = CARTESIAN_POINT('',(-2.127395644805,-8.934173286361));
#850 = CARTESIAN_POINT('',(-2.127395644805,-9.064944478027));
#851 = CARTESIAN_POINT('',(-2.125788936314,-9.129862380082));
#852 = CARTESIAN_POINT('',(-2.122577652549,-9.19453323748));
#853 = CARTESIAN_POINT('',(-2.117782255446,-9.258728215522));
#854 = CARTESIAN_POINT('',(-2.111441588434,-9.322210190824));
#855 = CARTESIAN_POINT('',(-2.09613841621,-9.444429075369));
#856 = CARTESIAN_POINT('',(-2.08730756327,-9.50324984649));
#857 = CARTESIAN_POINT('',(-2.077160030372,-9.561062481971));
#858 = CARTESIAN_POINT('',(-2.065738228356,-9.617720006837));
#859 = CARTESIAN_POINT('',(-2.053086599636,-9.673061186097));
#860 = CARTESIAN_POINT('',(-2.019281570148,-9.804629985552));
#861 = CARTESIAN_POINT('',(-1.996837148122,-9.879273546474));
#862 = CARTESIAN_POINT('',(-1.972016813081,-9.950439229896));
#863 = CARTESIAN_POINT('',(-1.944896614165,-10.01762383079));
#864 = CARTESIAN_POINT('',(-1.915534517979,-10.08018428028));
#865 = CARTESIAN_POINT('',(-1.871404787499,-10.16005038623));
#866 = CARTESIAN_POINT('',(-1.858485158619,-10.18193756333));
#867 = CARTESIAN_POINT('',(-1.845224217787,-10.20290093143));
#868 = CARTESIAN_POINT('',(-1.831629706783,-10.2228780798));
#869 = CARTESIAN_POINT('',(-1.817709461887,-10.24180474104));
#870 = CARTESIAN_POINT('',(-1.768480352324,-10.30338431331));
#871 = CARTESIAN_POINT('',(-1.731332927249,-10.34070576825));
#872 = CARTESIAN_POINT('',(-1.692501649975,-10.36991950726));
#873 = CARTESIAN_POINT('',(-1.652479751493,-10.38990556729));
#874 = CARTESIAN_POINT('',(-1.61174770307,-10.4));
#875 = CARTESIAN_POINT('',(-1.570796326795,-10.4));
#876 = ( GEOMETRIC_REPRESENTATION_CONTEXT(2) 
PARAMETRIC_REPRESENTATION_CONTEXT() REPRESENTATION_CONTEXT('2D SPACE',''
  ) );
#877 = PCURVE('',#600,#878);
#878 = DEFINITIONAL_REPRESENTATION('',(#879),#982);
#879 = B_SPLINE_CURVE_WITH_KNOTS('',6,(#880,#881,#882,#883,#884,#885,
    #886,#887,#888,#889,#890,#891,#892,#893,#894,#895,#896,#897,#898,
    #899,#900,#901,#902,#903,#904,#905,#906,#907,#908,#909,#910,#911,
    #912,#913,#914,#915,#916,#917,#918,#919,#920,#921,#922,#923,#924,
    #925,#926,#927,#928,#929,#930,#931,#932,#933,#934,#935,#936,#937,
    #938,#939,#940,#941,#942,#943,#944,#945,#946,#947,#948,#949,#950,
    #951,#952,#953,#954,#955,#956,#957,#958,#959,#960,#961,#962,#963,
    #964,#965,#966,#967,#968,#969,#970,#971,#972,#973,#974,#975,#976,
    #977,#978,#979,#980,#981),.UNSPECIFIED.,.F.,.F.,(7,5,5,5,5,5,5,5,5,5
    ,5,5,5,5,5,5,5,5,5,5,7),(0.,6.434291770067E-02,0.108778645591,
    0.156345548574,0.201224186376,0.249594663427,0.298206442129,
    0.342881179262,0.408643235291,0.459300506328,0.499275897422,
    0.563813360216,0.608382676923,0.656093704845,0.701108362265,
    0.749625440814,0.797492274317,0.843193748763,0.909155552074,
    0.935429592434,1.),.UNSPECIFIED.);
#880 = CARTESIAN_POINT('',(0.,-3.35));
#881 = CARTESIAN_POINT('',(7.749997447373E-02,-3.35));
#882 = CARTESIAN_POINT('',(0.154582910067,-3.355330950474));
#883 = CARTESIAN_POINT('',(0.230926956232,-3.365884469572));
#884 = CARTESIAN_POINT('',(0.306189377083,-3.381105040814));
#885 = CARTESIAN_POINT('',(0.379945556354,-3.400007600755));
#886 = CARTESIAN_POINT('',(0.50102789106,-3.43614350664));
#887 = CARTESIAN_POINT('',(0.549674934467,-3.452144771179));
#888 = CARTESIAN_POINT('',(0.597576750245,-3.469093290088));
#889 = CARTESIAN_POINT('',(0.644791613676,-3.486701535631));
#890 = CARTESIAN_POINT('',(0.69137095224,-3.504692217389));
#891 = CARTESIAN_POINT('',(0.786597332285,-3.54219087217));
#892 = CARTESIAN_POINT('',(0.835190488658,-3.56172889735));
#893 = CARTESIAN_POINT('',(0.883243701701,-3.58111346599));
#894 = CARTESIAN_POINT('',(0.930848214227,-3.600058085422));
#895 = CARTESIAN_POINT('',(0.978093840635,-3.618294434333));
#896 = CARTESIAN_POINT('',(1.06940455691,-3.651875017704));
#897 = CARTESIAN_POINT('',(1.113509609043,-3.667328578954));
#898 = CARTESIAN_POINT('',(1.157435363685,-3.681709527801));
#899 = CARTESIAN_POINT('',(1.201227814979,-3.694811727544));
#900 = CARTESIAN_POINT('',(1.244937303581,-3.706452825134));
#901 = CARTESIAN_POINT('',(1.335701992976,-3.727287429118));
#902 = CARTESIAN_POINT('',(1.382753943794,-3.736220527298));
#903 = CARTESIAN_POINT('',(1.429776247551,-3.743070127521));
#904 = CARTESIAN_POINT('',(1.476778308852,-3.747689278567));
#905 = CARTESIAN_POINT('',(1.523777242101,-3.75));
#906 = CARTESIAN_POINT('',(1.618049971565,-3.75));
#907 = CARTESIAN_POINT('',(1.665282976125,-3.747666171807));
#908 = CARTESIAN_POINT('',(1.712519159292,-3.743000876467));
#909 = CARTESIAN_POINT('',(1.759776031972,-3.736083655904));
#910 = CARTESIAN_POINT('',(1.807063216802,-3.727064320406));
#911 = CARTESIAN_POINT('',(1.897866287917,-3.706131207834));
#912 = CARTESIAN_POINT('',(1.941378845604,-3.694510456108));
#913 = CARTESIAN_POINT('',(1.984974253573,-3.681444974465));
#914 = CARTESIAN_POINT('',(2.028702275186,-3.667114881963));
#915 = CARTESIAN_POINT('',(2.072608426799,-3.651723581022));
#916 = CARTESIAN_POINT('',(2.18169182963,-3.611599091391));
#917 = CARTESIAN_POINT('',(2.247153120675,-3.585875780895));
#918 = CARTESIAN_POINT('',(2.313367731155,-3.558984343112));
#919 = CARTESIAN_POINT('',(2.380574724698,-3.531649292573));
#920 = CARTESIAN_POINT('',(2.449021142723,-3.504664270251));
#921 = CARTESIAN_POINT('',(2.572868516015,-3.459051387035));
#922 = CARTESIAN_POINT('',(2.627745182375,-3.439894250954));
#923 = CARTESIAN_POINT('',(2.68358139341,-3.421888519983));
#924 = CARTESIAN_POINT('',(2.740375726448,-3.405500007088));
#925 = CARTESIAN_POINT('',(2.798151417138,-3.3911762315));
#926 = CARTESIAN_POINT('',(2.903358457055,-3.369969969355));
#927 = CARTESIAN_POINT('',(2.950380061024,-3.362159585934));
#928 = CARTESIAN_POINT('',(2.997851362655,-3.356128702122));
#929 = CARTESIAN_POINT('',(3.045630554419,-3.352045109609));
#930 = CARTESIAN_POINT('',(3.093588104678,-3.35));
#931 = CARTESIAN_POINT('',(3.219092628063,-3.35));
#932 = CARTESIAN_POINT('',(3.296175563657,-3.355330950474));
#933 = CARTESIAN_POINT('',(3.372519609821,-3.365884469572));
#934 = CARTESIAN_POINT('',(3.447782030673,-3.381105040814));
#935 = CARTESIAN_POINT('',(3.521538209944,-3.400007600755));
#936 = CARTESIAN_POINT('',(3.642619695063,-3.436143253089));
#937 = CARTESIAN_POINT('',(3.691266957972,-3.452144532531));
#938 = CARTESIAN_POINT('',(3.739169502398,-3.469093299508));
#939 = CARTESIAN_POINT('',(3.78638509698,-3.4867018461));
#940 = CARTESIAN_POINT('',(3.832964625945,-3.504692619095));
#941 = CARTESIAN_POINT('',(3.928190052462,-3.542190898391));
#942 = CARTESIAN_POINT('',(3.976783235802,-3.561728935283));
#943 = CARTESIAN_POINT('',(4.024836446188,-3.581113502491));
#944 = CARTESIAN_POINT('',(4.072440935846,-3.600058111703));
#945 = CARTESIAN_POINT('',(4.119686528602,-3.618294446976));
#946 = CARTESIAN_POINT('',(4.21099721742,-3.651875020249));
#947 = CARTESIAN_POINT('',(4.255102271468,-3.667328581961));
#948 = CARTESIAN_POINT('',(4.299028024801,-3.681709530064));
#949 = CARTESIAN_POINT('',(4.342820473199,-3.694811728725));
#950 = CARTESIAN_POINT('',(4.386529958828,-3.706452825514));
#951 = CARTESIAN_POINT('',(4.477294643519,-3.727287428419));
#952 = CARTESIAN_POINT('',(4.524346595299,-3.736220527062));
#953 = CARTESIAN_POINT('',(4.571368901705,-3.743070127816));
#954 = CARTESIAN_POINT('',(4.618370965469,-3.747689278917));
#955 = CARTESIAN_POINT('',(4.665369899214,-3.75));
#956 = CARTESIAN_POINT('',(4.758777893261,-3.75));
#957 = CARTESIAN_POINT('',(4.805147890381,-3.747750788853));
#958 = CARTESIAN_POINT('',(4.851520863008,-3.743254486428));
#959 = CARTESIAN_POINT('',(4.897912909938,-3.736584992332));
#960 = CARTESIAN_POINT('',(4.944332884522,-3.72788176931));
#961 = CARTESIAN_POINT('',(5.035127821201,-3.70728219947));
#962 = CARTESIAN_POINT('',(5.07949961085,-3.695548048208));
#963 = CARTESIAN_POINT('',(5.123955258514,-3.682299667404));
#964 = CARTESIAN_POINT('',(5.168547212305,-3.667727261824));
#965 = CARTESIAN_POINT('',(5.213323254206,-3.652046474575));
#966 = CARTESIAN_POINT('',(5.323285016999,-3.61159889505));
#967 = CARTESIAN_POINT('',(5.388745983295,-3.585875686429));
#968 = CARTESIAN_POINT('',(5.454960106693,-3.558984451));
#969 = CARTESIAN_POINT('',(5.522166868514,-3.53164950521));
#970 = CARTESIAN_POINT('',(5.590613437513,-3.504664402397));
#971 = CARTESIAN_POINT('',(5.688437688189,-3.46863581331));
#972 = CARTESIAN_POINT('',(5.716544399381,-3.458565878555));
#973 = CARTESIAN_POINT('',(5.744898439003,-3.448748238654));
#974 = CARTESIAN_POINT('',(5.77350753498,-3.439242657877));
#975 = CARTESIAN_POINT('',(5.802380587819,-3.430109436682));
#976 = CARTESIAN_POINT('',(5.903158793573,-3.400028453522));
#977 = CARTESIAN_POINT('',(5.976929859996,-3.38111837579));
#978 = CARTESIAN_POINT('',(6.05220912891,-3.365891115267));
#979 = CARTESIAN_POINT('',(6.128570508646,-3.355333030824));
#980 = CARTESIAN_POINT('',(6.205670202088,-3.35));
#981 = CARTESIAN_POINT('',(6.28318530718,-3.35));
#982 = ( GEOMETRIC_REPRESENTATION_CONTEXT(2) 
PARAMETRIC_REPRESENTATION_CONTEXT() REPRESENTATION_CONTEXT('2D SPACE',''
  ) );
#983 = ADVANCED_FACE('',(#984,#992),#289,.T.);
#984 = FACE_BOUND('',#985,.T.);
#985 = EDGE_LOOP('',(#986,#987,#988,#989,#990,#991));
#986 = ORIENTED_EDGE('',*,*,#275,.F.);
#987 = ORIENTED_EDGE('',*,*,#305,.F.);
#988 = ORIENTED_EDGE('',*,*,#409,.T.);
#989 = ORIENTED_EDGE('',*,*,#457,.F.);
#990 = ORIENTED_EDGE('',*,*,#533,.T.);
#991 = ORIENTED_EDGE('',*,*,#559,.F.);
#992 = FACE_BOUND('',#993,.T.);
#993 = EDGE_LOOP('',(#994));
#994 = ORIENTED_EDGE('',*,*,#639,.F.);
#995 = ADVANCED_FACE('',(#996),#369,.F.);
#996 = FACE_BOUND('',#997,.F.);
#997 = EDGE_LOOP('',(#998,#999,#1020,#1021));
#998 = ORIENTED_EDGE('',*,*,#481,.F.);
#999 = ORIENTED_EDGE('',*,*,#1000,.T.);
#1000 = EDGE_CURVE('',#482,#353,#1001,.T.);
#1001 = SEAM_CURVE('',#1002,(#1006,#1013),.PCURVE_S1.);
#1002 = LINE('',#1003,#1004);
#1003 = CARTESIAN_POINT('',(2.15,15.,6.));
#1004 = VECTOR('',#1005,1.);
#1005 = DIRECTION('',(-0.,-0.,-1.));
#1006 = PCURVE('',#369,#1007);
#1007 = DEFINITIONAL_REPRESENTATION('',(#1008),#1012);
#1008 = LINE('',#1009,#1010);
#1009 = CARTESIAN_POINT('',(6.28318530718,0.));
#1010 = VECTOR('',#1011,1.);
#1011 = DIRECTION('',(0.,-1.));
#1012 = ( GEOMETRIC_REPRESENTATION_CONTEXT(2) 
PARAMETRIC_REPRESENTATION_CONTEXT() REPRESENTATION_CONTEXT('2D SPACE',''
  ) );
#1013 = PCURVE('',#369,#1014);
#1014 = DEFINITIONAL_REPRESENTATION('',(#1015),#1019);
#1015 = LINE('',#1016,#1017);
#1016 = CARTESIAN_POINT('',(0.,0.));
#1017 = VECTOR('',#1018,1.);
#1018 = DIRECTION('',(0.,-1.));
#1019 = ( GEOMETRIC_REPRESENTATION_CONTEXT(2) 
PARAMETRIC_REPRESENTATION_CONTEXT() REPRESENTATION_CONTEXT('2D SPACE',''
  ) );
#1020 = ORIENTED_EDGE('',*,*,#352,.T.);
#1021 = ORIENTED_EDGE('',*,*,#1000,.F.);
#1022 = ADVANCED_FACE('',(#1023),#600,.F.);
#1023 = FACE_BOUND('',#1024,.F.);
#1024 = EDGE_LOOP('',(#1025,#1026,#1047,#1048));
#1025 = ORIENTED_EDGE('',*,*,#583,.F.);
#1026 = ORIENTED_EDGE('',*,*,#1027,.T.);
#1027 = EDGE_CURVE('',#584,#665,#1028,.T.);
#1028 = SEAM_CURVE('',#1029,(#1033,#1040),.PCURVE_S1.);
#1029 = LINE('',#1030,#1031);
#1030 = CARTESIAN_POINT('',(1.4,0.,14.));
#1031 = VECTOR('',#1032,1.);
#1032 = DIRECTION('',(-0.,-0.,-1.));
#1033 = PCURVE('',#600,#1034);
#1034 = DEFINITIONAL_REPRESENTATION('',(#1035),#1039);
#1035 = LINE('',#1036,#1037);
#1036 = CARTESIAN_POINT('',(6.28318530718,0.));
#1037 = VECTOR('',#1038,1.);
#1038 = DIRECTION('',(0.,-1.));
#1039 = ( GEOMETRIC_REPRESENTATION_CONTEXT(2) 
PARAMETRIC_REPRESENTATION_CONTEXT() REPRESENTATION_CONTEXT('2D SPACE',''
  ) );
#1040 = PCURVE('',#600,#1041);
#1041 = DEFINITIONAL_REPRESENTATION('',(#1042),#1046);
#1042 = LINE('',#1043,#1044);
#1043 = CARTESIAN_POINT('',(0.,0.));
#1044 = VECTOR('',#1045,1.);
#1045 = DIRECTION('',(0.,-1.));
#1046 = ( GEOMETRIC_REPRESENTATION_CONTEXT(2) 
PARAMETRIC_REPRESENTATION_CONTEXT() REPRESENTATION_CONTEXT('2D SPACE',''
  ) );
#1047 = ORIENTED_EDGE('',*,*,#664,.T.);
#1048 = ORIENTED_EDGE('',*,*,#1027,.F.);
#1049 = ( GEOMETRIC_REPRESENTATION_CONTEXT(3) 
GLOBAL_UNCERTAINTY_ASSIGNED_CONTEXT((#1053)) 
GLOBAL_UNIT_ASSIGNED_CONTEXT((#1050,#1051,#1052)) REPRESENTATION_CONTEXT
('Context #1','3D Context with UNIT and UNCERTAINTY') );
#1050 = ( LENGTH_UNIT() NAMED_UNIT(*) SI_UNIT(.MILLI.,.METRE.) );
#1051 = ( NAMED_UNIT(*) PLANE_ANGLE_UNIT() SI_UNIT($,.RADIAN.) );
#1052 = ( NAMED_UNIT(*) SI_UNIT($,.STERADIAN.) SOLID_ANGLE_UNIT() );
#1053 = UNCERTAINTY_MEASURE_WITH_UNIT(LENGTH_MEASURE(1.E-07),#1050,
  'distance_accuracy_value','confusion accuracy');
#1054 = PRODUCT_RELATED_PRODUCT_CATEGORY('part',$,(#7));
ENDSEC;
END-ISO-10303-21;
